%TF.GenerationSoftware,KiCad,Pcbnew,8.0.8*%
%TF.CreationDate,2025-02-17T12:12:57+01:00*%
%TF.ProjectId,AD DA module,41442044-4120-46d6-9f64-756c652e6b69,rev?*%
%TF.SameCoordinates,Original*%
%TF.FileFunction,Paste,Top*%
%TF.FilePolarity,Positive*%
%FSLAX46Y46*%
G04 Gerber Fmt 4.6, Leading zero omitted, Abs format (unit mm)*
G04 Created by KiCad (PCBNEW 8.0.8) date 2025-02-17 12:12:57*
%MOMM*%
%LPD*%
G01*
G04 APERTURE LIST*
G04 Aperture macros list*
%AMRoundRect*
0 Rectangle with rounded corners*
0 $1 Rounding radius*
0 $2 $3 $4 $5 $6 $7 $8 $9 X,Y pos of 4 corners*
0 Add a 4 corners polygon primitive as box body*
4,1,4,$2,$3,$4,$5,$6,$7,$8,$9,$2,$3,0*
0 Add four circle primitives for the rounded corners*
1,1,$1+$1,$2,$3*
1,1,$1+$1,$4,$5*
1,1,$1+$1,$6,$7*
1,1,$1+$1,$8,$9*
0 Add four rect primitives between the rounded corners*
20,1,$1+$1,$2,$3,$4,$5,0*
20,1,$1+$1,$4,$5,$6,$7,0*
20,1,$1+$1,$6,$7,$8,$9,0*
20,1,$1+$1,$8,$9,$2,$3,0*%
%AMOutline4P*
0 Free polygon, 4 corners , with rotation*
0 The origin of the aperture is its center*
0 number of corners: always 4*
0 $1 to $8 corner X, Y*
0 $9 Rotation angle, in degrees counterclockwise*
0 create outline with 4 corners*
4,1,4,$1,$2,$3,$4,$5,$6,$7,$8,$1,$2,$9*%
G04 Aperture macros list end*
%ADD10RoundRect,0.200000X-0.275000X0.200000X-0.275000X-0.200000X0.275000X-0.200000X0.275000X0.200000X0*%
%ADD11RoundRect,0.225000X0.225000X0.250000X-0.225000X0.250000X-0.225000X-0.250000X0.225000X-0.250000X0*%
%ADD12RoundRect,0.225000X0.250000X-0.225000X0.250000X0.225000X-0.250000X0.225000X-0.250000X-0.225000X0*%
%ADD13RoundRect,0.225000X-0.250000X0.225000X-0.250000X-0.225000X0.250000X-0.225000X0.250000X0.225000X0*%
%ADD14RoundRect,0.250000X0.350000X0.450000X-0.350000X0.450000X-0.350000X-0.450000X0.350000X-0.450000X0*%
%ADD15RoundRect,0.250000X-0.350000X-0.450000X0.350000X-0.450000X0.350000X0.450000X-0.350000X0.450000X0*%
%ADD16R,1.000000X0.900000*%
%ADD17RoundRect,0.200000X0.200000X0.275000X-0.200000X0.275000X-0.200000X-0.275000X0.200000X-0.275000X0*%
%ADD18RoundRect,0.225000X-0.225000X-0.250000X0.225000X-0.250000X0.225000X0.250000X-0.225000X0.250000X0*%
%ADD19R,1.200000X3.000000*%
%ADD20RoundRect,0.100000X-0.675000X-0.100000X0.675000X-0.100000X0.675000X0.100000X-0.675000X0.100000X0*%
%ADD21RoundRect,0.200000X0.275000X-0.200000X0.275000X0.200000X-0.275000X0.200000X-0.275000X-0.200000X0*%
%ADD22RoundRect,0.112500X-0.112500X0.187500X-0.112500X-0.187500X0.112500X-0.187500X0.112500X0.187500X0*%
%ADD23RoundRect,0.150000X0.150000X-0.587500X0.150000X0.587500X-0.150000X0.587500X-0.150000X-0.587500X0*%
%ADD24RoundRect,0.250000X-0.325000X-0.650000X0.325000X-0.650000X0.325000X0.650000X-0.325000X0.650000X0*%
%ADD25RoundRect,0.250000X-0.312500X-0.625000X0.312500X-0.625000X0.312500X0.625000X-0.312500X0.625000X0*%
%ADD26R,2.413000X3.429000*%
%ADD27RoundRect,0.250000X0.300000X-0.300000X0.300000X0.300000X-0.300000X0.300000X-0.300000X-0.300000X0*%
%ADD28RoundRect,0.062500X0.062500X-0.375000X0.062500X0.375000X-0.062500X0.375000X-0.062500X-0.375000X0*%
%ADD29RoundRect,0.062500X0.375000X-0.062500X0.375000X0.062500X-0.375000X0.062500X-0.375000X-0.062500X0*%
%ADD30RoundRect,0.250000X-0.450000X0.350000X-0.450000X-0.350000X0.450000X-0.350000X0.450000X0.350000X0*%
%ADD31RoundRect,0.250000X0.450000X-0.350000X0.450000X0.350000X-0.450000X0.350000X-0.450000X-0.350000X0*%
%ADD32RoundRect,0.172500X-0.172500X-0.172500X0.172500X-0.172500X0.172500X0.172500X-0.172500X0.172500X0*%
%ADD33RoundRect,0.062500X-0.375000X-0.062500X0.375000X-0.062500X0.375000X0.062500X-0.375000X0.062500X0*%
%ADD34RoundRect,0.062500X-0.062500X-0.375000X0.062500X-0.375000X0.062500X0.375000X-0.062500X0.375000X0*%
%ADD35RoundRect,0.200000X-0.200000X-0.275000X0.200000X-0.275000X0.200000X0.275000X-0.200000X0.275000X0*%
%ADD36RoundRect,0.150000X0.825000X0.150000X-0.825000X0.150000X-0.825000X-0.150000X0.825000X-0.150000X0*%
%ADD37RoundRect,0.250000X-0.475000X0.250000X-0.475000X-0.250000X0.475000X-0.250000X0.475000X0.250000X0*%
%ADD38RoundRect,0.218750X-0.218750X-0.256250X0.218750X-0.256250X0.218750X0.256250X-0.218750X0.256250X0*%
%ADD39RoundRect,0.150000X-0.150000X0.825000X-0.150000X-0.825000X0.150000X-0.825000X0.150000X0.825000X0*%
%ADD40Outline4P,-1.500000X-0.725000X1.500000X-0.725000X1.800000X0.725000X-1.800000X0.725000X90.000000*%
%ADD41Outline4P,-1.800000X-0.725000X1.800000X-0.725000X1.500000X0.725000X-1.500000X0.725000X90.000000*%
%ADD42RoundRect,0.218750X0.256250X-0.218750X0.256250X0.218750X-0.256250X0.218750X-0.256250X-0.218750X0*%
%ADD43RoundRect,0.237500X0.250000X0.237500X-0.250000X0.237500X-0.250000X-0.237500X0.250000X-0.237500X0*%
%ADD44RoundRect,0.100000X-0.637500X-0.100000X0.637500X-0.100000X0.637500X0.100000X-0.637500X0.100000X0*%
%ADD45RoundRect,0.250000X0.250000X0.475000X-0.250000X0.475000X-0.250000X-0.475000X0.250000X-0.475000X0*%
%ADD46RoundRect,0.250000X0.325000X0.650000X-0.325000X0.650000X-0.325000X-0.650000X0.325000X-0.650000X0*%
%ADD47RoundRect,0.249999X1.500001X-1.025001X1.500001X1.025001X-1.500001X1.025001X-1.500001X-1.025001X0*%
%ADD48R,0.500000X1.000000*%
%ADD49R,0.700000X0.250000*%
%ADD50RoundRect,0.250000X-0.250000X-0.475000X0.250000X-0.475000X0.250000X0.475000X-0.250000X0.475000X0*%
%ADD51RoundRect,0.125000X0.125000X-0.125000X0.125000X0.125000X-0.125000X0.125000X-0.125000X-0.125000X0*%
%ADD52R,5.700000X1.600000*%
%ADD53RoundRect,0.175000X-0.175000X-0.325000X0.175000X-0.325000X0.175000X0.325000X-0.175000X0.325000X0*%
%ADD54RoundRect,0.150000X-0.200000X-0.150000X0.200000X-0.150000X0.200000X0.150000X-0.200000X0.150000X0*%
%ADD55R,1.100000X1.300000*%
%ADD56R,0.700000X1.200000*%
%ADD57R,1.000000X0.800000*%
%ADD58R,1.000000X1.200000*%
%ADD59R,1.000000X2.800000*%
%ADD60R,1.300000X1.900000*%
%ADD61R,1.066800X1.879600*%
%ADD62RoundRect,0.218750X0.218750X0.256250X-0.218750X0.256250X-0.218750X-0.256250X0.218750X-0.256250X0*%
%ADD63RoundRect,0.125000X-0.125000X0.125000X-0.125000X-0.125000X0.125000X-0.125000X0.125000X0.125000X0*%
%ADD64RoundRect,0.218750X0.218750X0.381250X-0.218750X0.381250X-0.218750X-0.381250X0.218750X-0.381250X0*%
%ADD65RoundRect,0.125000X-0.125000X-0.125000X0.125000X-0.125000X0.125000X0.125000X-0.125000X0.125000X0*%
%ADD66RoundRect,0.250000X0.312500X0.625000X-0.312500X0.625000X-0.312500X-0.625000X0.312500X-0.625000X0*%
%ADD67RoundRect,0.150000X0.150000X-0.825000X0.150000X0.825000X-0.150000X0.825000X-0.150000X-0.825000X0*%
%ADD68R,3.429000X2.413000*%
%ADD69RoundRect,0.150000X0.587500X0.150000X-0.587500X0.150000X-0.587500X-0.150000X0.587500X-0.150000X0*%
%ADD70R,0.900000X0.400000*%
%ADD71RoundRect,0.150000X0.150000X-0.512500X0.150000X0.512500X-0.150000X0.512500X-0.150000X-0.512500X0*%
%ADD72R,0.400000X1.000000*%
%ADD73RoundRect,0.250000X0.850000X0.350000X-0.850000X0.350000X-0.850000X-0.350000X0.850000X-0.350000X0*%
%ADD74RoundRect,0.250000X1.275000X1.125000X-1.275000X1.125000X-1.275000X-1.125000X1.275000X-1.125000X0*%
%ADD75RoundRect,0.250000X0.262500X0.450000X-0.262500X0.450000X-0.262500X-0.450000X0.262500X-0.450000X0*%
%ADD76RoundRect,0.250000X-0.650000X0.325000X-0.650000X-0.325000X0.650000X-0.325000X0.650000X0.325000X0*%
%ADD77RoundRect,0.150000X-0.150000X-0.350000X0.150000X-0.350000X0.150000X0.350000X-0.150000X0.350000X0*%
%ADD78RoundRect,0.105000X-0.245000X-0.105000X0.245000X-0.105000X0.245000X0.105000X-0.245000X0.105000X0*%
%ADD79R,3.400000X1.250000*%
%ADD80R,4.300000X1.450000*%
%ADD81RoundRect,0.250000X0.787500X1.025000X-0.787500X1.025000X-0.787500X-1.025000X0.787500X-1.025000X0*%
%ADD82RoundRect,0.250000X1.000000X0.650000X-1.000000X0.650000X-1.000000X-0.650000X1.000000X-0.650000X0*%
%ADD83Outline4P,-1.500000X-0.725000X1.500000X-0.725000X1.800000X0.725000X-1.800000X0.725000X180.000000*%
%ADD84Outline4P,-1.800000X-0.725000X1.800000X-0.725000X1.500000X0.725000X-1.500000X0.725000X180.000000*%
%ADD85RoundRect,0.150000X0.512500X0.150000X-0.512500X0.150000X-0.512500X-0.150000X0.512500X-0.150000X0*%
%ADD86RoundRect,0.075000X0.075000X-0.725000X0.075000X0.725000X-0.075000X0.725000X-0.075000X-0.725000X0*%
%ADD87RoundRect,0.075000X0.725000X-0.075000X0.725000X0.075000X-0.725000X0.075000X-0.725000X-0.075000X0*%
G04 APERTURE END LIST*
D10*
X95250000Y-15345000D03*
X95250000Y-16995000D03*
D11*
X132895000Y-58940000D03*
X131345000Y-58940000D03*
D12*
X111760000Y-77610000D03*
X111760000Y-76060000D03*
D11*
X28360000Y-56125000D03*
X26810000Y-56125000D03*
D13*
X82460000Y-90685000D03*
X82460000Y-92235000D03*
D11*
X61115000Y-54340000D03*
X59565000Y-54340000D03*
D14*
X55130000Y-35910000D03*
X53130000Y-35910000D03*
D15*
X53100000Y-28910000D03*
X55100000Y-28910000D03*
D11*
X159665000Y-65050000D03*
X158115000Y-65050000D03*
D12*
X65610000Y-25735000D03*
X65610000Y-24185000D03*
D15*
X29060000Y-20550000D03*
X31060000Y-20550000D03*
D11*
X111335000Y-73150000D03*
X109785000Y-73150000D03*
X62805000Y-86560000D03*
X61255000Y-86560000D03*
D16*
X1700000Y-82200000D03*
X1700000Y-83800000D03*
D11*
X101165000Y-5410000D03*
X99615000Y-5410000D03*
D12*
X40405000Y-47910000D03*
X40405000Y-46360000D03*
X104395000Y-52357500D03*
X104395000Y-50807500D03*
D15*
X22005000Y-50135000D03*
X24005000Y-50135000D03*
D13*
X54810000Y-48485000D03*
X54810000Y-50035000D03*
D12*
X124060000Y-62555000D03*
X124060000Y-61005000D03*
D14*
X41835000Y-58975000D03*
X39835000Y-58975000D03*
D12*
X18865000Y-24370000D03*
X18865000Y-22820000D03*
D11*
X132905000Y-57080000D03*
X131355000Y-57080000D03*
D17*
X114575000Y-73160000D03*
X112925000Y-73160000D03*
D14*
X53210000Y-56310000D03*
X51210000Y-56310000D03*
D15*
X53080000Y-32410000D03*
X55080000Y-32410000D03*
D18*
X111493000Y-81153000D03*
X113043000Y-81153000D03*
D19*
X153180000Y-46660000D03*
X150680000Y-46660000D03*
X150680000Y-54160000D03*
X153180000Y-54160000D03*
D20*
X65540000Y-13100000D03*
X65540000Y-13750000D03*
X65540000Y-14400000D03*
X65540000Y-15050000D03*
X65540000Y-15700000D03*
X65540000Y-16350000D03*
X65540000Y-17000000D03*
X65540000Y-17650000D03*
X65540000Y-18300000D03*
X65540000Y-18950000D03*
X71290000Y-18950000D03*
X71290000Y-18300000D03*
X71290000Y-17650000D03*
X71290000Y-17000000D03*
X71290000Y-16350000D03*
X71290000Y-15700000D03*
X71290000Y-15050000D03*
X71290000Y-14400000D03*
X71290000Y-13750000D03*
X71290000Y-13100000D03*
D21*
X45060000Y-36205000D03*
X45060000Y-34555000D03*
D17*
X4195000Y-45260000D03*
X2545000Y-45260000D03*
D15*
X22025000Y-53385000D03*
X24025000Y-53385000D03*
D18*
X93495000Y-35090000D03*
X95045000Y-35090000D03*
D13*
X77220000Y-12025000D03*
X77220000Y-13575000D03*
D12*
X124990000Y-26235000D03*
X124990000Y-24685000D03*
D18*
X127241000Y-81280000D03*
X128791000Y-81280000D03*
D22*
X154340000Y-16580000D03*
X154340000Y-18680000D03*
D23*
X80200000Y-12547500D03*
X82100000Y-12547500D03*
X81150000Y-10672500D03*
D12*
X90720000Y-27975000D03*
X90720000Y-26425000D03*
D18*
X93495000Y-33100000D03*
X95045000Y-33100000D03*
D24*
X22000000Y-16850000D03*
X24950000Y-16850000D03*
X7796000Y-4699000D03*
X10746000Y-4699000D03*
D18*
X100015000Y-17010000D03*
X101565000Y-17010000D03*
D14*
X35825000Y-43255000D03*
X33825000Y-43255000D03*
D13*
X68540000Y-88925000D03*
X68540000Y-90475000D03*
X59830000Y-27082500D03*
X59830000Y-28632500D03*
D25*
X7808500Y-7239000D03*
X10733500Y-7239000D03*
D12*
X52325000Y-53830000D03*
X52325000Y-52280000D03*
D13*
X118565000Y-17135000D03*
X118565000Y-18685000D03*
D26*
X132368000Y-64910000D03*
X138210000Y-64910000D03*
D27*
X104285500Y-81749000D03*
X105655500Y-81749000D03*
X107025500Y-81749000D03*
X104285500Y-80379000D03*
X105655500Y-80379000D03*
X107025500Y-80379000D03*
X104285500Y-79009000D03*
X105655500Y-79009000D03*
X107025500Y-79009000D03*
D28*
X102905500Y-83816500D03*
X103405500Y-83816500D03*
X103905500Y-83816500D03*
X104405500Y-83816500D03*
X104905500Y-83816500D03*
X105405500Y-83816500D03*
X105905500Y-83816500D03*
X106405500Y-83816500D03*
X106905500Y-83816500D03*
X107405500Y-83816500D03*
X107905500Y-83816500D03*
X108405500Y-83816500D03*
D29*
X109093000Y-83129000D03*
X109093000Y-82629000D03*
X109093000Y-82129000D03*
X109093000Y-81629000D03*
X109093000Y-81129000D03*
X109093000Y-80629000D03*
X109093000Y-80129000D03*
X109093000Y-79629000D03*
X109093000Y-79129000D03*
X109093000Y-78629000D03*
X109093000Y-78129000D03*
X109093000Y-77629000D03*
D28*
X108405500Y-76941500D03*
X107905500Y-76941500D03*
X107405500Y-76941500D03*
X106905500Y-76941500D03*
X106405500Y-76941500D03*
X105905500Y-76941500D03*
X105405500Y-76941500D03*
X104905500Y-76941500D03*
X104405500Y-76941500D03*
X103905500Y-76941500D03*
X103405500Y-76941500D03*
X102905500Y-76941500D03*
D29*
X102218000Y-77629000D03*
X102218000Y-78129000D03*
X102218000Y-78629000D03*
X102218000Y-79129000D03*
X102218000Y-79629000D03*
X102218000Y-80129000D03*
X102218000Y-80629000D03*
X102218000Y-81129000D03*
X102218000Y-81629000D03*
X102218000Y-82129000D03*
X102218000Y-82629000D03*
X102218000Y-83129000D03*
D18*
X154825000Y-66900000D03*
X156375000Y-66900000D03*
D12*
X9030000Y-74755000D03*
X9030000Y-73205000D03*
D11*
X148603000Y-91948000D03*
X147053000Y-91948000D03*
D17*
X124205000Y-85990000D03*
X122555000Y-85990000D03*
D13*
X85680000Y-71085000D03*
X85680000Y-72635000D03*
X77320000Y-26365000D03*
X77320000Y-27915000D03*
D12*
X24775000Y-47890000D03*
X24775000Y-46340000D03*
D30*
X102150000Y-26200000D03*
X102150000Y-28200000D03*
D17*
X122491000Y-88011000D03*
X120841000Y-88011000D03*
D12*
X124905000Y-9735000D03*
X124905000Y-8185000D03*
D13*
X109982000Y-85966000D03*
X109982000Y-87516000D03*
X122230000Y-61025000D03*
X122230000Y-62575000D03*
D12*
X104740000Y-28355000D03*
X104740000Y-26805000D03*
D31*
X41080000Y-19710000D03*
X41080000Y-17710000D03*
D14*
X47395000Y-43155000D03*
X45395000Y-43155000D03*
D32*
X46822500Y-30640000D03*
X46822500Y-31440000D03*
X47622500Y-30640000D03*
X47622500Y-31440000D03*
D33*
X45785000Y-30290000D03*
X45785000Y-30790000D03*
X45785000Y-31290000D03*
X45785000Y-31790000D03*
D34*
X46472500Y-32477500D03*
X46972500Y-32477500D03*
X47472500Y-32477500D03*
X47972500Y-32477500D03*
D33*
X48660000Y-31790000D03*
X48660000Y-31290000D03*
X48660000Y-30790000D03*
X48660000Y-30290000D03*
D34*
X47972500Y-29602500D03*
X47472500Y-29602500D03*
X46972500Y-29602500D03*
X46472500Y-29602500D03*
D35*
X111443000Y-79502000D03*
X113093000Y-79502000D03*
D15*
X53125000Y-17010000D03*
X55125000Y-17010000D03*
D17*
X108013000Y-85979000D03*
X106363000Y-85979000D03*
D36*
X103080000Y-11180000D03*
X103080000Y-9910000D03*
X103080000Y-8640000D03*
X103080000Y-7370000D03*
X98130000Y-7370000D03*
X98130000Y-8640000D03*
X98130000Y-9910000D03*
X98130000Y-11180000D03*
D11*
X100755000Y-76870000D03*
X99205000Y-76870000D03*
D13*
X122210000Y-47245000D03*
X122210000Y-48795000D03*
D36*
X90695000Y-20150000D03*
X90695000Y-18880000D03*
X90695000Y-17610000D03*
X90695000Y-16340000D03*
X85745000Y-16340000D03*
X85745000Y-17610000D03*
X85745000Y-18880000D03*
X85745000Y-20150000D03*
D37*
X117070000Y-86080000D03*
X117070000Y-87980000D03*
D15*
X35290000Y-15640000D03*
X37290000Y-15640000D03*
D38*
X84282500Y-90650000D03*
X85857500Y-90650000D03*
D23*
X90420000Y-24487500D03*
X92320000Y-24487500D03*
X91370000Y-22612500D03*
D30*
X90990000Y-30260000D03*
X90990000Y-32260000D03*
X99590000Y-34040000D03*
X99590000Y-36040000D03*
D14*
X55125000Y-20510000D03*
X53125000Y-20510000D03*
D20*
X65610000Y-27550000D03*
X65610000Y-28200000D03*
X65610000Y-28850000D03*
X65610000Y-29500000D03*
X65610000Y-30150000D03*
X65610000Y-30800000D03*
X65610000Y-31450000D03*
X65610000Y-32100000D03*
X65610000Y-32750000D03*
X65610000Y-33400000D03*
X71360000Y-33400000D03*
X71360000Y-32750000D03*
X71360000Y-32100000D03*
X71360000Y-31450000D03*
X71360000Y-30800000D03*
X71360000Y-30150000D03*
X71360000Y-29500000D03*
X71360000Y-28850000D03*
X71360000Y-28200000D03*
X71360000Y-27550000D03*
D13*
X13270000Y-89205000D03*
X13270000Y-90755000D03*
D39*
X24695000Y-22805000D03*
X23425000Y-22805000D03*
X22155000Y-22805000D03*
X20885000Y-22805000D03*
X20885000Y-27755000D03*
X22155000Y-27755000D03*
X23425000Y-27755000D03*
X24695000Y-27755000D03*
D40*
X158305000Y-61560000D03*
D41*
X155355000Y-61560000D03*
D42*
X15030000Y-68007500D03*
X15030000Y-66432500D03*
D10*
X99630000Y-78435000D03*
X99630000Y-80085000D03*
D18*
X46970000Y-21320000D03*
X48520000Y-21320000D03*
D12*
X69210000Y-25775000D03*
X69210000Y-24225000D03*
D13*
X26680000Y-24435000D03*
X26680000Y-25985000D03*
D25*
X27177500Y-87640000D03*
X30102500Y-87640000D03*
D43*
X17212500Y-31020000D03*
X15387500Y-31020000D03*
D12*
X124050000Y-52355000D03*
X124050000Y-50805000D03*
D10*
X137560000Y-31555000D03*
X137560000Y-33205000D03*
D11*
X47910000Y-12440000D03*
X46360000Y-12440000D03*
D13*
X126730000Y-16885000D03*
X126730000Y-18435000D03*
D30*
X26750000Y-12660000D03*
X26750000Y-14660000D03*
D14*
X29960000Y-43250000D03*
X27960000Y-43250000D03*
D44*
X59035000Y-46065000D03*
X59035000Y-46715000D03*
X59035000Y-47365000D03*
X59035000Y-48015000D03*
X59035000Y-48665000D03*
X59035000Y-49315000D03*
X59035000Y-49965000D03*
X59035000Y-50615000D03*
X64760000Y-50615000D03*
X64760000Y-49965000D03*
X64760000Y-49315000D03*
X64760000Y-48665000D03*
X64760000Y-48015000D03*
X64760000Y-47365000D03*
X64760000Y-46715000D03*
X64760000Y-46065000D03*
D10*
X93030000Y-15325000D03*
X93030000Y-16975000D03*
D45*
X116266000Y-75057000D03*
X114366000Y-75057000D03*
D21*
X45055000Y-20925000D03*
X45055000Y-19275000D03*
D46*
X134955000Y-32620000D03*
X132005000Y-32620000D03*
D12*
X54165000Y-53830000D03*
X54165000Y-52280000D03*
D15*
X29070000Y-36340000D03*
X31070000Y-36340000D03*
D12*
X61710000Y-28632500D03*
X61710000Y-27082500D03*
D11*
X47070000Y-45815000D03*
X45520000Y-45815000D03*
D13*
X113150000Y-8140000D03*
X113150000Y-9690000D03*
D12*
X113240000Y-26525000D03*
X113240000Y-24975000D03*
D47*
X26500000Y-78425000D03*
X26500000Y-72875000D03*
D13*
X118610000Y-24965000D03*
X118610000Y-26515000D03*
X59820000Y-12632500D03*
X59820000Y-14182500D03*
X64895000Y-52540000D03*
X64895000Y-54090000D03*
D48*
X121625000Y-9925000D03*
X121625000Y-8725000D03*
D49*
X122550000Y-10450000D03*
X122550000Y-10000000D03*
X122550000Y-9550000D03*
X122550000Y-9100000D03*
X122550000Y-8650000D03*
X122550000Y-8200000D03*
X120700000Y-8200000D03*
X120700000Y-8650000D03*
X120700000Y-9100000D03*
X120700000Y-9550000D03*
X120700000Y-10000000D03*
X120700000Y-10450000D03*
D15*
X35270000Y-36340000D03*
X37270000Y-36340000D03*
D12*
X124040000Y-48785000D03*
X124040000Y-47235000D03*
D11*
X132925000Y-53400000D03*
X131375000Y-53400000D03*
D37*
X127930000Y-65160000D03*
X127930000Y-67060000D03*
D24*
X7542000Y-95250000D03*
X10492000Y-95250000D03*
D12*
X124930000Y-18435000D03*
X124930000Y-16885000D03*
D50*
X127193000Y-75692000D03*
X129093000Y-75692000D03*
D35*
X69655000Y-94760000D03*
X71305000Y-94760000D03*
D18*
X131435000Y-47540000D03*
X132985000Y-47540000D03*
D30*
X102800000Y-30760000D03*
X102800000Y-32760000D03*
D13*
X50455000Y-19275000D03*
X50455000Y-20825000D03*
D10*
X95040000Y-11025000D03*
X95040000Y-12675000D03*
D12*
X81780000Y-72635000D03*
X81780000Y-71085000D03*
D11*
X51990000Y-50435000D03*
X50440000Y-50435000D03*
D51*
X17140000Y-17787500D03*
X17140000Y-15587500D03*
D12*
X114967500Y-9685000D03*
X114967500Y-8135000D03*
D13*
X78600000Y-90695000D03*
X78600000Y-92245000D03*
D17*
X146025000Y-25570000D03*
X144375000Y-25570000D03*
D11*
X38875000Y-74803000D03*
X37325000Y-74803000D03*
D52*
X150130000Y-64420000D03*
X150130000Y-69120000D03*
D12*
X69200000Y-11412500D03*
X69200000Y-9862500D03*
D13*
X73320000Y-11985000D03*
X73320000Y-13535000D03*
D53*
X93300000Y-86430000D03*
D54*
X93300000Y-88130000D03*
X95300000Y-88130000D03*
X95300000Y-86230000D03*
D55*
X66212500Y-92610000D03*
X66212500Y-94710000D03*
X67862500Y-94710000D03*
X67862500Y-92610000D03*
D12*
X36775000Y-53790000D03*
X36775000Y-52240000D03*
X106930000Y-32485000D03*
X106930000Y-30935000D03*
D13*
X105050000Y-30935000D03*
X105050000Y-32485000D03*
D35*
X119945000Y-71250000D03*
X121595000Y-71250000D03*
D12*
X42235000Y-47910000D03*
X42235000Y-46360000D03*
D11*
X101615000Y-20670000D03*
X100065000Y-20670000D03*
D12*
X38565000Y-47910000D03*
X38565000Y-46360000D03*
X106205000Y-48767500D03*
X106205000Y-47217500D03*
D10*
X93030000Y-18835000D03*
X93030000Y-20485000D03*
D56*
X42195000Y-77470000D03*
X41095000Y-77470000D03*
X39995000Y-77470000D03*
X38895000Y-77470000D03*
X37795000Y-77470000D03*
X36695000Y-77470000D03*
X35595000Y-77470000D03*
X34495000Y-77470000D03*
X33545000Y-77470000D03*
D57*
X32595000Y-87970000D03*
D58*
X32595000Y-81770000D03*
D59*
X32595000Y-92120000D03*
D58*
X43745000Y-77470000D03*
D60*
X46095000Y-92570000D03*
D17*
X4195000Y-54550000D03*
X2545000Y-54550000D03*
D11*
X87705000Y-22090000D03*
X86155000Y-22090000D03*
X90515000Y-10640000D03*
X88965000Y-10640000D03*
D12*
X115070000Y-26515000D03*
X115070000Y-24965000D03*
D31*
X41080000Y-15224000D03*
X41080000Y-13224000D03*
D37*
X142640000Y-42860000D03*
X142640000Y-44760000D03*
D15*
X35310000Y-20570000D03*
X37310000Y-20570000D03*
D12*
X59820000Y-19605000D03*
X59820000Y-18055000D03*
D48*
X121635000Y-26775000D03*
X121635000Y-25575000D03*
D49*
X122560000Y-27300000D03*
X122560000Y-26850000D03*
X122560000Y-26400000D03*
X122560000Y-25950000D03*
X122560000Y-25500000D03*
X122560000Y-25050000D03*
X120710000Y-25050000D03*
X120710000Y-25500000D03*
X120710000Y-25950000D03*
X120710000Y-26400000D03*
X120710000Y-26850000D03*
X120710000Y-27300000D03*
D61*
X151003000Y-74549000D03*
X149733000Y-74549000D03*
X148463000Y-74549000D03*
X147193000Y-74549000D03*
X145923000Y-74549000D03*
X144653000Y-74549000D03*
X143383000Y-74549000D03*
X142113000Y-74549000D03*
X140843000Y-74549000D03*
X139573000Y-74549000D03*
X138303000Y-74549000D03*
X137033000Y-74549000D03*
X135763000Y-74549000D03*
X134493000Y-74549000D03*
X133223000Y-74549000D03*
X131953000Y-74549000D03*
X131953000Y-89189052D03*
X133223000Y-89189052D03*
X134493000Y-89189052D03*
X135763000Y-89189052D03*
X137033000Y-89189052D03*
X138303000Y-89189052D03*
X139573000Y-89189052D03*
X140843000Y-89189052D03*
X142113000Y-89189052D03*
X143383000Y-89189052D03*
X144653000Y-89189052D03*
X145923000Y-89189052D03*
X147193000Y-89189052D03*
X148463000Y-89189052D03*
X149733000Y-89189052D03*
X151003000Y-89189052D03*
D13*
X75380000Y-26335000D03*
X75380000Y-27885000D03*
D37*
X126570000Y-54120000D03*
X126570000Y-56020000D03*
D14*
X35795000Y-58965000D03*
X33795000Y-58965000D03*
D35*
X50505000Y-39710000D03*
X52155000Y-39710000D03*
D26*
X131639000Y-26430000D03*
X137481000Y-26430000D03*
D62*
X72977500Y-9850000D03*
X71402500Y-9850000D03*
D18*
X99995000Y-13460000D03*
X101545000Y-13460000D03*
D13*
X50490000Y-34545000D03*
X50490000Y-36095000D03*
D63*
X19730000Y-15610000D03*
X19730000Y-17810000D03*
D11*
X48530000Y-19320000D03*
X46980000Y-19320000D03*
D18*
X100005000Y-15245000D03*
X101555000Y-15245000D03*
D12*
X81470000Y-19325000D03*
X81470000Y-17775000D03*
D11*
X152810000Y-57320000D03*
X151260000Y-57320000D03*
D64*
X107342500Y-11300000D03*
X105217500Y-11300000D03*
D13*
X66610000Y-68005000D03*
X66610000Y-69555000D03*
D12*
X65470000Y-11412500D03*
X65470000Y-9862500D03*
D11*
X136035000Y-47250000D03*
X134485000Y-47250000D03*
D65*
X77259000Y-51181000D03*
X79459000Y-51181000D03*
D15*
X35280000Y-31580000D03*
X37280000Y-31580000D03*
D12*
X105220000Y-9335000D03*
X105220000Y-7785000D03*
X107350000Y-9355000D03*
X107350000Y-7805000D03*
D13*
X126767500Y-24695000D03*
X126767500Y-26245000D03*
D17*
X87395000Y-14320000D03*
X85745000Y-14320000D03*
D66*
X35342500Y-39010000D03*
X32417500Y-39010000D03*
D67*
X44475000Y-53240000D03*
X45745000Y-53240000D03*
X47015000Y-53240000D03*
X48285000Y-53240000D03*
X48285000Y-48290000D03*
X47015000Y-48290000D03*
X45745000Y-48290000D03*
X44475000Y-48290000D03*
D11*
X121933000Y-74930000D03*
X120383000Y-74930000D03*
D68*
X134830000Y-38559000D03*
X134830000Y-44401000D03*
D51*
X18870000Y-35117500D03*
X18870000Y-32917500D03*
D13*
X125040000Y-73645000D03*
X125040000Y-75195000D03*
D48*
X121632500Y-18952500D03*
X121632500Y-17752500D03*
D49*
X122557500Y-19477500D03*
X122557500Y-19027500D03*
X122557500Y-18577500D03*
X122557500Y-18127500D03*
X122557500Y-17677500D03*
X122557500Y-17227500D03*
X120707500Y-17227500D03*
X120707500Y-17677500D03*
X120707500Y-18127500D03*
X120707500Y-18577500D03*
X120707500Y-19027500D03*
X120707500Y-19477500D03*
D12*
X92990000Y-12625000D03*
X92990000Y-11075000D03*
X61650000Y-14182500D03*
X61650000Y-12632500D03*
D69*
X43617500Y-39960000D03*
X43617500Y-38060000D03*
X41742500Y-39010000D03*
D70*
X128960000Y-73160000D03*
X128960000Y-72360000D03*
X128960000Y-71560000D03*
X128960000Y-70760000D03*
X127260000Y-70760000D03*
X127260000Y-71560000D03*
X127260000Y-72360000D03*
X127260000Y-73160000D03*
D10*
X73730000Y-36395000D03*
X73730000Y-38045000D03*
D12*
X63520000Y-14182500D03*
X63520000Y-12632500D03*
D17*
X116268000Y-80137000D03*
X114618000Y-80137000D03*
D12*
X76860000Y-92245000D03*
X76860000Y-90695000D03*
X22945000Y-47890000D03*
X22945000Y-46340000D03*
D13*
X118547500Y-8145000D03*
X118547500Y-9695000D03*
D18*
X47045000Y-36690000D03*
X48595000Y-36690000D03*
D13*
X56860000Y-47815000D03*
X56860000Y-49365000D03*
D35*
X140615000Y-62360000D03*
X142265000Y-62360000D03*
D12*
X80540000Y-92245000D03*
X80540000Y-90695000D03*
D10*
X18680000Y-82615000D03*
X18680000Y-84265000D03*
X71690000Y-36405000D03*
X71690000Y-38055000D03*
D14*
X29020000Y-58920000D03*
X27020000Y-58920000D03*
D18*
X154825000Y-65050000D03*
X156375000Y-65050000D03*
D11*
X29640000Y-45735000D03*
X28090000Y-45735000D03*
D71*
X92120000Y-83747500D03*
X93070000Y-83747500D03*
X94020000Y-83747500D03*
X94020000Y-81472500D03*
X92120000Y-81472500D03*
D18*
X63270000Y-42325000D03*
X64820000Y-42325000D03*
D12*
X64730000Y-70455000D03*
X64730000Y-68905000D03*
X124050000Y-58985000D03*
X124050000Y-57435000D03*
D13*
X17035000Y-22815000D03*
X17035000Y-24365000D03*
D11*
X63705000Y-88360000D03*
X62155000Y-88360000D03*
D12*
X73330000Y-92245000D03*
X73330000Y-90695000D03*
D10*
X83310000Y-17725000D03*
X83310000Y-19375000D03*
D35*
X147055000Y-95360000D03*
X148705000Y-95360000D03*
D17*
X53485000Y-95630000D03*
X51835000Y-95630000D03*
D18*
X46350000Y-10590000D03*
X47900000Y-10590000D03*
D36*
X99595000Y-31180000D03*
X99595000Y-29910000D03*
X99595000Y-28640000D03*
X99595000Y-27370000D03*
X94645000Y-27370000D03*
X94645000Y-28640000D03*
X94645000Y-29910000D03*
X94645000Y-31180000D03*
D13*
X70410000Y-88915000D03*
X70410000Y-90465000D03*
D15*
X53125000Y-13510000D03*
X55125000Y-13510000D03*
D14*
X53110000Y-45940000D03*
X51110000Y-45940000D03*
D11*
X34630000Y-50415000D03*
X33080000Y-50415000D03*
D72*
X12040000Y-76280000D03*
X12690000Y-76280000D03*
X13340000Y-76280000D03*
X13340000Y-74280000D03*
X12690000Y-74280000D03*
X12040000Y-74280000D03*
D21*
X11400000Y-71725000D03*
X11400000Y-70075000D03*
D71*
X135100000Y-51642500D03*
X136050000Y-51642500D03*
X137000000Y-51642500D03*
X137000000Y-49367500D03*
X136050000Y-49367500D03*
X135100000Y-49367500D03*
D11*
X48585000Y-34600000D03*
X47035000Y-34600000D03*
X47900000Y-27470000D03*
X46350000Y-27470000D03*
D21*
X9030000Y-78330000D03*
X9030000Y-76680000D03*
D73*
X119770000Y-52367500D03*
D74*
X115145000Y-51612500D03*
X115145000Y-48562500D03*
X111795000Y-51612500D03*
X111795000Y-48562500D03*
D73*
X119770000Y-47807500D03*
X101990000Y-52337500D03*
D74*
X97365000Y-51582500D03*
X97365000Y-48532500D03*
X94015000Y-51582500D03*
X94015000Y-48532500D03*
D73*
X101990000Y-47777500D03*
D30*
X18725000Y-47075000D03*
X18725000Y-49075000D03*
D12*
X83830000Y-72635000D03*
X83830000Y-71085000D03*
X67390000Y-25755000D03*
X67390000Y-24205000D03*
D11*
X116358000Y-82169000D03*
X114808000Y-82169000D03*
D21*
X77220000Y-17105000D03*
X77220000Y-15455000D03*
D12*
X113222500Y-18732500D03*
X113222500Y-17182500D03*
D18*
X88835000Y-12530000D03*
X90385000Y-12530000D03*
D13*
X106650000Y-26835000D03*
X106650000Y-28385000D03*
D10*
X116900000Y-24915000D03*
X116900000Y-26565000D03*
D14*
X47375000Y-58975000D03*
X45375000Y-58975000D03*
D11*
X116091000Y-76962000D03*
X114541000Y-76962000D03*
D12*
X52559000Y-81925000D03*
X52559000Y-80375000D03*
D75*
X143722500Y-4920000D03*
X141897500Y-4920000D03*
D11*
X71255000Y-92690000D03*
X69705000Y-92690000D03*
D13*
X73330000Y-26335000D03*
X73330000Y-27885000D03*
D35*
X127191000Y-79629000D03*
X128841000Y-79629000D03*
D13*
X64027500Y-92915000D03*
X64027500Y-94465000D03*
D17*
X98635000Y-22570000D03*
X96985000Y-22570000D03*
D75*
X143712500Y-9010000D03*
X141887500Y-9010000D03*
D35*
X131375000Y-49450000D03*
X133025000Y-49450000D03*
D11*
X132905000Y-55240000D03*
X131355000Y-55240000D03*
D12*
X54210000Y-81925000D03*
X54210000Y-80375000D03*
X21105000Y-47880000D03*
X21105000Y-46330000D03*
D10*
X116765000Y-8075000D03*
X116765000Y-9725000D03*
D17*
X98905000Y-86560000D03*
X97255000Y-86560000D03*
D11*
X51960000Y-48555000D03*
X50410000Y-48555000D03*
D15*
X29060000Y-15680000D03*
X31060000Y-15680000D03*
D14*
X35795000Y-56175000D03*
X33795000Y-56175000D03*
D25*
X7554500Y-92710000D03*
X10479500Y-92710000D03*
D67*
X27030000Y-53220000D03*
X28300000Y-53220000D03*
X29570000Y-53220000D03*
X30840000Y-53220000D03*
X30840000Y-48270000D03*
X29570000Y-48270000D03*
X28300000Y-48270000D03*
X27030000Y-48270000D03*
D76*
X141560000Y-64565000D03*
X141560000Y-67515000D03*
D13*
X122230000Y-50835000D03*
X122230000Y-52385000D03*
D37*
X101346000Y-86045000D03*
X101346000Y-87945000D03*
D13*
X15430000Y-74365000D03*
X15430000Y-75915000D03*
D10*
X83310000Y-14405000D03*
X83310000Y-16055000D03*
D24*
X21110000Y-33580000D03*
X24060000Y-33580000D03*
D12*
X34935000Y-53800000D03*
X34935000Y-52250000D03*
D13*
X106205000Y-50797500D03*
X106205000Y-52347500D03*
D11*
X93745000Y-79400000D03*
X92195000Y-79400000D03*
D21*
X14030000Y-71685000D03*
X14030000Y-70035000D03*
D65*
X37480000Y-39010000D03*
X39680000Y-39010000D03*
D30*
X88070000Y-26590000D03*
X88070000Y-28590000D03*
D10*
X111760000Y-82868000D03*
X111760000Y-84518000D03*
D11*
X61095000Y-52380000D03*
X59545000Y-52380000D03*
D63*
X16380000Y-32940000D03*
X16380000Y-35140000D03*
D17*
X77685000Y-29820000D03*
X76035000Y-29820000D03*
D13*
X104415000Y-47217500D03*
X104415000Y-48767500D03*
D30*
X26760000Y-33930000D03*
X26760000Y-35930000D03*
D43*
X23497500Y-30750000D03*
X21672500Y-30750000D03*
D17*
X120725000Y-85970000D03*
X119075000Y-85970000D03*
D12*
X126670000Y-9735000D03*
X126670000Y-8185000D03*
D24*
X27165000Y-85100000D03*
X30115000Y-85100000D03*
D77*
X149820000Y-23300000D03*
X149820000Y-24430000D03*
X150530000Y-23300000D03*
X150530000Y-24430000D03*
D78*
X151300000Y-22890000D03*
X151300000Y-23540000D03*
X151300000Y-24190000D03*
X151300000Y-24840000D03*
X148300000Y-22890000D03*
X148300000Y-23540000D03*
X148300000Y-24190000D03*
X148300000Y-24840000D03*
D12*
X75080000Y-92245000D03*
X75080000Y-90695000D03*
D10*
X84560000Y-9295000D03*
X84560000Y-10945000D03*
D70*
X141840000Y-69490000D03*
X141840000Y-70290000D03*
X141840000Y-71090000D03*
X141840000Y-71890000D03*
X143540000Y-71890000D03*
X143540000Y-71090000D03*
X143540000Y-70290000D03*
X143540000Y-69490000D03*
D12*
X50455000Y-53830000D03*
X50455000Y-52280000D03*
X114982500Y-18737500D03*
X114982500Y-17187500D03*
D13*
X122200000Y-57435000D03*
X122200000Y-58985000D03*
D18*
X127241000Y-77597000D03*
X128791000Y-77597000D03*
D14*
X41655000Y-43155000D03*
X39655000Y-43155000D03*
D35*
X88785000Y-14320000D03*
X90435000Y-14320000D03*
D65*
X77259000Y-53213000D03*
X79459000Y-53213000D03*
D31*
X41080000Y-34940000D03*
X41080000Y-32940000D03*
D11*
X34600000Y-48545000D03*
X33050000Y-48545000D03*
D73*
X119770000Y-62557500D03*
D74*
X115145000Y-61802500D03*
X115145000Y-58752500D03*
X111795000Y-61802500D03*
X111795000Y-58752500D03*
D73*
X119770000Y-57997500D03*
D18*
X100065000Y-18810000D03*
X101615000Y-18810000D03*
D66*
X36542500Y-7710000D03*
X33617500Y-7710000D03*
D31*
X41100000Y-29150000D03*
X41100000Y-27150000D03*
D11*
X153005000Y-43360000D03*
X151455000Y-43360000D03*
D30*
X26750000Y-19160000D03*
X26750000Y-21160000D03*
D32*
X46810000Y-15592500D03*
X46810000Y-16392500D03*
X47610000Y-15592500D03*
X47610000Y-16392500D03*
D33*
X45772500Y-15242500D03*
X45772500Y-15742500D03*
X45772500Y-16242500D03*
X45772500Y-16742500D03*
D34*
X46460000Y-17430000D03*
X46960000Y-17430000D03*
X47460000Y-17430000D03*
X47960000Y-17430000D03*
D33*
X48647500Y-16742500D03*
X48647500Y-16242500D03*
X48647500Y-15742500D03*
X48647500Y-15242500D03*
D34*
X47960000Y-14555000D03*
X47460000Y-14555000D03*
X46960000Y-14555000D03*
X46460000Y-14555000D03*
D15*
X29070000Y-31580000D03*
X31070000Y-31580000D03*
D12*
X95250000Y-20495000D03*
X95250000Y-18945000D03*
D79*
X4220000Y-73090000D03*
X4220000Y-76840000D03*
D80*
X3470000Y-71340000D03*
X3470000Y-78590000D03*
D13*
X154887500Y-70115000D03*
X154887500Y-71665000D03*
D10*
X127635000Y-82868000D03*
X127635000Y-84518000D03*
D13*
X75260000Y-12005000D03*
X75260000Y-13555000D03*
D10*
X81460000Y-14405000D03*
X81460000Y-16055000D03*
D17*
X133015000Y-51380000D03*
X131365000Y-51380000D03*
D13*
X81835000Y-85085000D03*
X81835000Y-86635000D03*
D30*
X97680000Y-17285000D03*
X97680000Y-19285000D03*
D31*
X18695000Y-55815000D03*
X18695000Y-53815000D03*
D81*
X65282500Y-58110000D03*
X59057500Y-58110000D03*
D11*
X159685000Y-66910000D03*
X158135000Y-66910000D03*
D30*
X14720000Y-16350000D03*
X14720000Y-18350000D03*
D13*
X83785000Y-85085000D03*
X83785000Y-86635000D03*
D10*
X20193000Y-82595000D03*
X20193000Y-84245000D03*
D11*
X105885000Y-74790000D03*
X104335000Y-74790000D03*
D46*
X134965000Y-35570000D03*
X132015000Y-35570000D03*
D65*
X38480000Y-7710000D03*
X40680000Y-7710000D03*
D11*
X99962000Y-81660000D03*
X98412000Y-81660000D03*
D12*
X59830000Y-33705000D03*
X59830000Y-32155000D03*
D18*
X86155000Y-24030000D03*
X87705000Y-24030000D03*
X63280000Y-44195000D03*
X64830000Y-44195000D03*
D13*
X125840000Y-85995000D03*
X125840000Y-87545000D03*
D11*
X45810000Y-55865000D03*
X44260000Y-55865000D03*
D13*
X66670000Y-88925000D03*
X66670000Y-90475000D03*
D14*
X35825000Y-46205000D03*
X33825000Y-46205000D03*
D15*
X95420000Y-24600000D03*
X97420000Y-24600000D03*
D14*
X17460000Y-27490000D03*
X15460000Y-27490000D03*
D17*
X104965000Y-85979000D03*
X103315000Y-85979000D03*
D82*
X20100000Y-10630000D03*
X16100000Y-10630000D03*
D43*
X24842500Y-19710000D03*
X23017500Y-19710000D03*
D12*
X52560000Y-78435000D03*
X52560000Y-76885000D03*
X63590000Y-28632500D03*
X63590000Y-27082500D03*
D18*
X85865000Y-12530000D03*
X87415000Y-12530000D03*
D83*
X136380000Y-54345000D03*
D84*
X136380000Y-57295000D03*
D17*
X116395000Y-83820000D03*
X114745000Y-83820000D03*
D69*
X44755000Y-8660000D03*
X44755000Y-6760000D03*
X42880000Y-7710000D03*
D10*
X116782500Y-17112500D03*
X116782500Y-18762500D03*
D27*
X120287500Y-81749000D03*
X121657500Y-81749000D03*
X123027500Y-81749000D03*
X120287500Y-80379000D03*
X121657500Y-80379000D03*
X123027500Y-80379000D03*
X120287500Y-79009000D03*
X121657500Y-79009000D03*
X123027500Y-79009000D03*
D28*
X118907500Y-83816500D03*
X119407500Y-83816500D03*
X119907500Y-83816500D03*
X120407500Y-83816500D03*
X120907500Y-83816500D03*
X121407500Y-83816500D03*
X121907500Y-83816500D03*
X122407500Y-83816500D03*
X122907500Y-83816500D03*
X123407500Y-83816500D03*
X123907500Y-83816500D03*
X124407500Y-83816500D03*
D29*
X125095000Y-83129000D03*
X125095000Y-82629000D03*
X125095000Y-82129000D03*
X125095000Y-81629000D03*
X125095000Y-81129000D03*
X125095000Y-80629000D03*
X125095000Y-80129000D03*
X125095000Y-79629000D03*
X125095000Y-79129000D03*
X125095000Y-78629000D03*
X125095000Y-78129000D03*
X125095000Y-77629000D03*
D28*
X124407500Y-76941500D03*
X123907500Y-76941500D03*
X123407500Y-76941500D03*
X122907500Y-76941500D03*
X122407500Y-76941500D03*
X121907500Y-76941500D03*
X121407500Y-76941500D03*
X120907500Y-76941500D03*
X120407500Y-76941500D03*
X119907500Y-76941500D03*
X119407500Y-76941500D03*
X118907500Y-76941500D03*
D29*
X118220000Y-77629000D03*
X118220000Y-78129000D03*
X118220000Y-78629000D03*
X118220000Y-79129000D03*
X118220000Y-79629000D03*
X118220000Y-80129000D03*
X118220000Y-80629000D03*
X118220000Y-81129000D03*
X118220000Y-81629000D03*
X118220000Y-82129000D03*
X118220000Y-82629000D03*
X118220000Y-83129000D03*
D67*
X16115000Y-92335000D03*
X17385000Y-92335000D03*
X18655000Y-92335000D03*
X19925000Y-92335000D03*
X19925000Y-87385000D03*
X18655000Y-87385000D03*
X17385000Y-87385000D03*
X16115000Y-87385000D03*
D17*
X6485000Y-83820000D03*
X4835000Y-83820000D03*
D12*
X67340000Y-11412500D03*
X67340000Y-9862500D03*
D17*
X116268000Y-78613000D03*
X114618000Y-78613000D03*
D76*
X144780000Y-64585000D03*
X144780000Y-67535000D03*
D85*
X159217500Y-71110000D03*
X159217500Y-70160000D03*
X159217500Y-69210000D03*
X156942500Y-69210000D03*
X156942500Y-70160000D03*
X156942500Y-71110000D03*
D86*
X65920000Y-86875000D03*
X66420000Y-86875000D03*
X66920000Y-86875000D03*
X67420000Y-86875000D03*
X67920000Y-86875000D03*
X68420000Y-86875000D03*
X68920000Y-86875000D03*
X69420000Y-86875000D03*
X69920000Y-86875000D03*
X70420000Y-86875000D03*
X70920000Y-86875000D03*
X71420000Y-86875000D03*
X71920000Y-86875000D03*
X72420000Y-86875000D03*
X72920000Y-86875000D03*
X73420000Y-86875000D03*
X73920000Y-86875000D03*
X74420000Y-86875000D03*
X74920000Y-86875000D03*
X75420000Y-86875000D03*
X75920000Y-86875000D03*
X76420000Y-86875000D03*
X76920000Y-86875000D03*
X77420000Y-86875000D03*
X77920000Y-86875000D03*
D87*
X79595000Y-85200000D03*
X79595000Y-84700000D03*
X79595000Y-84200000D03*
X79595000Y-83700000D03*
X79595000Y-83200000D03*
X79595000Y-82700000D03*
X79595000Y-82200000D03*
X79595000Y-81700000D03*
X79595000Y-81200000D03*
X79595000Y-80700000D03*
X79595000Y-80200000D03*
X79595000Y-79700000D03*
X79595000Y-79200000D03*
X79595000Y-78700000D03*
X79595000Y-78200000D03*
X79595000Y-77700000D03*
X79595000Y-77200000D03*
X79595000Y-76700000D03*
X79595000Y-76200000D03*
X79595000Y-75700000D03*
X79595000Y-75200000D03*
X79595000Y-74700000D03*
X79595000Y-74200000D03*
X79595000Y-73700000D03*
X79595000Y-73200000D03*
D86*
X77920000Y-71525000D03*
X77420000Y-71525000D03*
X76920000Y-71525000D03*
X76420000Y-71525000D03*
X75920000Y-71525000D03*
X75420000Y-71525000D03*
X74920000Y-71525000D03*
X74420000Y-71525000D03*
X73920000Y-71525000D03*
X73420000Y-71525000D03*
X72920000Y-71525000D03*
X72420000Y-71525000D03*
X71920000Y-71525000D03*
X71420000Y-71525000D03*
X70920000Y-71525000D03*
X70420000Y-71525000D03*
X69920000Y-71525000D03*
X69420000Y-71525000D03*
X68920000Y-71525000D03*
X68420000Y-71525000D03*
X67920000Y-71525000D03*
X67420000Y-71525000D03*
X66920000Y-71525000D03*
X66420000Y-71525000D03*
X65920000Y-71525000D03*
D87*
X64245000Y-73200000D03*
X64245000Y-73700000D03*
X64245000Y-74200000D03*
X64245000Y-74700000D03*
X64245000Y-75200000D03*
X64245000Y-75700000D03*
X64245000Y-76200000D03*
X64245000Y-76700000D03*
X64245000Y-77200000D03*
X64245000Y-77700000D03*
X64245000Y-78200000D03*
X64245000Y-78700000D03*
X64245000Y-79200000D03*
X64245000Y-79700000D03*
X64245000Y-80200000D03*
X64245000Y-80700000D03*
X64245000Y-81200000D03*
X64245000Y-81700000D03*
X64245000Y-82200000D03*
X64245000Y-82700000D03*
X64245000Y-83200000D03*
X64245000Y-83700000D03*
X64245000Y-84200000D03*
X64245000Y-84700000D03*
X64245000Y-85200000D03*
D47*
X59970000Y-72272500D03*
X59970000Y-66722500D03*
D30*
X26760000Y-29570000D03*
X26760000Y-31570000D03*
D21*
X66760000Y-54155000D03*
X66760000Y-52505000D03*
D18*
X46350000Y-25540000D03*
X47900000Y-25540000D03*
D12*
X33065000Y-53810000D03*
X33065000Y-52260000D03*
D43*
X18832500Y-20600000D03*
X17007500Y-20600000D03*
D21*
X47080000Y-8635000D03*
X47080000Y-6985000D03*
D12*
X29080000Y-26035000D03*
X29080000Y-24485000D03*
M02*
