M48
; DRILL file {KiCad 8.0.8} date 2025-02-17T12:13:06+0100
; FORMAT={2:4/ absolute / inch / suppress leading zeros}
; #@! TF.CreationDate,2025-02-17T12:13:06+01:00
; #@! TF.GenerationSoftware,Kicad,Pcbnew,8.0.8
; #@! TF.FileFunction,MixedPlating,1,4
FMAT,2
INCH,TZ
; #@! TA.AperFunction,Plated,PTH,ComponentDrill
T1C0.0079
; #@! TA.AperFunction,Plated,PTH,ViaDrill
T2C0.0118
; #@! TA.AperFunction,Plated,PTH,ComponentDrill
T3C0.0118
; #@! TA.AperFunction,Plated,PTH,ViaDrill
T4C0.0160
; #@! TA.AperFunction,Plated,PTH,ViaDrill
T5C0.0197
; #@! TA.AperFunction,Plated,PTH,ViaDrill
T6C0.0236
; #@! TA.AperFunction,Plated,PTH,ViaDrill
T7C0.0240
; #@! TA.AperFunction,Plated,PTH,ComponentDrill
T8C0.0276
; #@! TA.AperFunction,Plated,PTH,ComponentDrill
T9C0.0315
; #@! TA.AperFunction,Plated,PTH,ComponentDrill
T10C0.0335
; #@! TA.AperFunction,Plated,PTH,ViaDrill
T11C0.0394
; #@! TA.AperFunction,Plated,PTH,ComponentDrill
T12C0.0394
; #@! TA.AperFunction,Plated,PTH,ComponentDrill
T13C0.0512
; #@! TA.AperFunction,Plated,PTH,ComponentDrill
T14C0.0551
; #@! TA.AperFunction,Plated,PTH,ComponentDrill
T15C0.0591
; #@! TA.AperFunction,Plated,PTH,ComponentDrill
T16C0.0669
; #@! TA.AperFunction,Plated,PTH,ComponentDrill
T17C0.1063
; #@! TA.AperFunction,Plated,PTH,ComponentDrill
T18C0.1260
%
G90
G05
T1
X40888Y-30937
X40888Y-31409
X40888Y-31881
X40888Y-32354
X41360Y-30937
X41360Y-31409
X41360Y-31881
X41360Y-32354
X41833Y-30937
X41833Y-31409
X41833Y-31881
X41833Y-32354
X42305Y-30937
X42305Y-31409
X42305Y-31881
X42305Y-32354
X47188Y-30937
X47188Y-31409
X47188Y-31881
X47188Y-32354
X47660Y-30937
X47660Y-31409
X47660Y-31881
X47660Y-32354
X48133Y-30937
X48133Y-31409
X48133Y-31881
X48133Y-32354
X48605Y-30937
X48605Y-31409
X48605Y-31881
X48605Y-32354
T2
X5150Y-17732
X5791Y-8094
X5933Y-15126
X8244Y-34433
X10142Y-32728
X10150Y-32358
X10161Y-31992
X10181Y-34252
X10193Y-34843
X13201Y-30000
X13794Y-35232
X13798Y-34859
X13804Y-33357
X13807Y-34106
X13809Y-34493
X13812Y-33742
X14114Y-22677
X14118Y-17642
X15740Y-29700
X16900Y-29550
X17000Y-30000
X18929Y-2740
X19000Y-22583
X19118Y-17024
X19283Y-12957
X19323Y-7012
X20906Y-34548
X21244Y-19083
X21862Y-7563
X22346Y-14394
X22531Y-13921
X22591Y-32201
X22959Y-32333
X22988Y-6437
X23129Y-32660
X23569Y-31167
X23621Y-32546
X23634Y-34406
X23816Y-31421
X24061Y-31677
X24323Y-16449
X24624Y-31271
X24669Y-11273
X24744Y-25571
X24933Y-28484
X25118Y-25134
X25228Y-25677
X25228Y-26685
X25550Y-26350
X25700Y-24846
X26350Y-26047
X26366Y-8512
X26550Y-25701
X26950Y-25700
X27350Y-25701
X27719Y-14270
X28185Y-19000
X28188Y-26150
X28250Y-26800
X28295Y-13669
X28402Y-27390
X28450Y-25849
X28450Y-26450
X28512Y-19250
X28654Y-13413
X28673Y-33528
X28807Y-13870
X29067Y-35122
X29256Y-13866
X29425Y-34894
X29571Y-19100
X29744Y-24256
X30000Y-20800
X30055Y-9819
X30122Y-24248
X30200Y-30200
X30325Y-13199
X30350Y-30550
X30461Y-29906
X30464Y-31367
X30488Y-24248
X30508Y-7004
X30535Y-13555
X30535Y-13953
X30550Y-30900
X30583Y-35713
X30750Y-20950
X30760Y-29614
X30850Y-24248
X30866Y-12732
X31205Y-24244
X31547Y-13961
X31563Y-24248
X31697Y-5671
X31858Y-13555
X31917Y-24235
X32118Y-30114
X32181Y-13157
X32271Y-24232
X32504Y-30110
X32807Y-30327
X32902Y-8315
X32972Y-23780
X33215Y-30098
X33346Y-23787
X33681Y-30280
X33728Y-23791
X33929Y-10421
X34118Y-30161
X34463Y-23559
X34512Y-29551
X34531Y-6134
X34839Y-23571
X34902Y-29374
X35067Y-34433
X35080Y-34787
X35094Y-7953
X35197Y-23323
X35228Y-23858
X35274Y-11014
X35328Y-35041
X35578Y-35291
X36630Y-5677
X37535Y-10193
X39744Y-31110
X39815Y-31551
X39992Y-33173
X41048Y-34882
X41260Y-34248
X41406Y-33429
X41803Y-33417
X43031Y-33102
X43433Y-31646
X43441Y-31035
X44130Y-35087
X44780Y-35087
X45398Y-28803
X46169Y-28555
X46740Y-35055
X46843Y-4315
X46843Y-7839
X46843Y-10909
X47323Y-2957
X47370Y-28552
X49087Y-4236
X57055Y-27559
X57449Y-35732
T3
X18390Y-6099
X18390Y-6493
X18395Y-12024
X18395Y-12417
X18783Y-6099
X18783Y-6493
X18788Y-12024
X18788Y-12417
T4
X14900Y-31000
X15400Y-28600
X16100Y-28600
X17300Y-24550
X24250Y-29850
X24650Y-29900
X27700Y-24550
X28800Y-27550
T5
X5783Y-6031
X6311Y-9000
X6744Y-5900
X8646Y-18850
X11858Y-10264
X13102Y-3587
X14400Y-3600
X14402Y-15358
X14835Y-18862
X14874Y-21201
X15976Y-15358
X16370Y-3311
X17300Y-14300
X17650Y-8665
X17827Y-14984
X17886Y-5319
X17925Y-10437
X18929Y-10417
X19146Y-14020
X19600Y-9531
X20961Y-21193
X21173Y-15028
X21823Y-16146
X23909Y-9531
X24185Y-6913
X26724Y-14846
X26911Y-10535
X27079Y-15752
X27551Y-16382
X27909Y-8587
X30524Y-9925
X31429Y-4346
X32909Y-9935
X32909Y-16382
X33531Y-9126
X34303Y-16433
X34402Y-15575
X34657Y-4543
X34835Y-16913
X34882Y-8705
X36075Y-4976
X36169Y-4382
X36429Y-13803
X37413Y-13449
X39154Y-10402
X40724Y-5130
X41035Y-9846
X41843Y-2701
X42661Y-4728
X51969Y-13421
X56035Y-10299
X57394Y-36835
T6
X2531Y-28075
X2531Y-30929
X4610Y-16358
X4618Y-36992
X5004Y-30547
X5150Y-28232
X5236Y-34622
X5524Y-29098
X6094Y-30378
X6799Y-14236
X7085Y-9602
X7118Y-10402
X7374Y-17878
X7433Y-13559
X7776Y-5900
X7976Y-22201
X8165Y-16051
X8197Y-36350
X9354Y-31165
X9402Y-17819
X10409Y-28024
X11035Y-31972
X11823Y-9606
X11980Y-32543
X12846Y-34197
X13366Y-20571
X13941Y-19449
X14700Y-29050
X15300Y-29100
X15543Y-18252
X17236Y-31047
X17236Y-35909
X19126Y-7996
X19283Y-5181
X20189Y-20575
X20445Y-19512
X22650Y-22839
X22728Y-26264
X23535Y-8173
X23594Y-27760
X23736Y-19291
X23925Y-4961
X23925Y-10662
X23988Y-13272
X24126Y-34492
X25083Y-21307
X25394Y-35006
X25484Y-28134
X25520Y-17028
X25583Y-37209
X25858Y-26775
X26016Y-33350
X26154Y-5559
X26213Y-28882
X26220Y-11236
X26606Y-35614
X26874Y-3883
X26911Y-9236
X27335Y-35616
X27728Y-33547
X29098Y-3874
X29205Y-36579
X30051Y-5344
X30081Y-10993
X30425Y-28902
X30583Y-33469
X31300Y-20550
X32091Y-36317
X32591Y-27986
X32610Y-28882
X33358Y-33488
X33358Y-34118
X34150Y-35669
X34598Y-32583
X35835Y-29765
X35917Y-31343
X36150Y-23909
X38398Y-32150
X38693Y-30260
X38870Y-31539
X39520Y-33390
X39677Y-29886
X40193Y-21681
X40740Y-29197
X41441Y-19622
X41685Y-29098
X42827Y-11307
X42850Y-13697
X43220Y-29236
X43673Y-33843
X44146Y-3205
X44146Y-6765
X44146Y-9833
X44500Y-29945
X44500Y-30850
X44776Y-32346
X44894Y-4118
X44913Y-7681
X44950Y-10450
X45150Y-31874
X45622Y-33882
X46106Y-30008
X46200Y-35050
X46331Y-4118
X46331Y-7681
X46400Y-10450
X46429Y-33134
X47315Y-7937
X47323Y-4315
X47337Y-11008
X47394Y-29157
X47571Y-35004
X48004Y-29157
X48201Y-15228
X48449Y-19724
X48461Y-23732
X49165Y-2937
X49179Y-6256
X49209Y-9441
X49287Y-22079
X49402Y-29965
X49457Y-33114
X49874Y-12516
X49953Y-33862
X50071Y-29256
X50476Y-11098
X50839Y-29256
X51002Y-26435
X51094Y-30535
X51114Y-31343
X51114Y-31992
X51232Y-8587
X51724Y-20618
X51724Y-21374
X51736Y-22110
X51736Y-22819
X54244Y-18953
X55220Y-28535
X56382Y-26583
X60937Y-26992
T7
X21350Y-31300
X21700Y-32250
T8
X362Y-19185
X362Y-20185
X2362Y-19185
X2362Y-20185
X3362Y-19185
X3362Y-20185
X4362Y-19185
X4362Y-20185
X9311Y-5106
X9311Y-15008
X9360Y-17033
X9360Y-23215
X16120Y-19872
X16120Y-21986
X22248Y-17004
X22248Y-20657
X28768Y-8331
X34661Y-12705
X34661Y-13996
X38425Y-5524
X42850Y-17409
X43531Y-3193
X43536Y-6767
X43543Y-9846
X47161Y-21953
X47165Y-17409
X54177Y-13906
X55295Y-1933
X55295Y-3543
X55862Y-8976
X56972Y-24362
X57157Y-1933
X57193Y-3543
T9
X55976Y-5693
X55976Y-7071
T10
X11232Y-11354
X11232Y-13354
X11252Y-5159
X11252Y-7159
X12098Y-11354
X12098Y-13354
X12118Y-5159
X12118Y-7159
X12965Y-11354
X12965Y-13354
X12984Y-5159
X12984Y-7159
X14224Y-11354
X14224Y-13354
X14244Y-5159
X14244Y-7159
T11
X48024Y-25988
X57250Y-22557
X57736Y-8587
X57787Y-15929
X59126Y-17071
T12
X4949Y-24866
X5949Y-24866
X6067Y-17006
X6067Y-18006
X6067Y-19006
X6067Y-20679
X6067Y-21679
X6067Y-22679
X6949Y-24866
X19451Y-36441
X20451Y-36441
X36547Y-35693
X36547Y-36693
X37547Y-35693
X37547Y-36693
X38547Y-35693
X38547Y-36693
X39547Y-35693
X39547Y-36693
X40547Y-35693
X40547Y-36693
X41547Y-35693
X41547Y-36693
X42547Y-35693
X42547Y-36693
X43547Y-35693
X43547Y-36693
X44547Y-35693
X44547Y-36693
X45547Y-35693
X45547Y-36693
X46547Y-35693
X46547Y-36693
X47547Y-35693
X47547Y-36693
X48547Y-35693
X48547Y-36693
X49547Y-35693
X49547Y-36693
X50547Y-35693
X50547Y-36693
X55083Y-36327
X56083Y-36327
X56150Y-12260
X56150Y-14260
X56150Y-20260
X56150Y-21260
X62150Y-12260
X62150Y-14260
X62150Y-20260
X62150Y-21260
T13
X1300Y-26475
X1300Y-34225
X16300Y-26350
X17300Y-26350
X18300Y-26350
X19300Y-27350
X19300Y-28350
X19300Y-29350
X19300Y-30350
X19300Y-31350
X19300Y-32350
X19300Y-33350
T14
X59185Y-5799
X59185Y-7799
T15
X2150Y-15800
X2165Y-5118
X2165Y-8700
X2165Y-12250
X2165Y-23800
T16
X1150Y-14800
X1150Y-16800
X1165Y-4118
X1165Y-6118
X1165Y-7700
X1165Y-9700
X1165Y-11250
X1165Y-13250
X1165Y-22800
X1165Y-24800
X3150Y-14800
X3150Y-16800
X3165Y-4118
X3165Y-6118
X3165Y-7700
X3165Y-9700
X3165Y-11250
X3165Y-13250
X3165Y-22800
X3165Y-24800
T17
X1400Y-2170
X1400Y-37170
T18
X11180Y-2993
X11181Y-36378
X22991Y-2993
X22992Y-36378
X61615Y-2363
X61615Y-37007
M30
