%TF.GenerationSoftware,KiCad,Pcbnew,8.0.8*%
%TF.CreationDate,2025-02-14T08:34:57+01:00*%
%TF.ProjectId,AD DA module,41442044-4120-46d6-9f64-756c652e6b69,rev?*%
%TF.SameCoordinates,Original*%
%TF.FileFunction,Other,User*%
%FSLAX46Y46*%
G04 Gerber Fmt 4.6, Leading zero omitted, Abs format (unit mm)*
G04 Created by KiCad (PCBNEW 8.0.8) date 2025-02-14 08:34:57*
%MOMM*%
%LPD*%
G01*
G04 APERTURE LIST*
%ADD10C,0.050000*%
%ADD11C,0.100000*%
G04 APERTURE END LIST*
D10*
X94520000Y-14690000D02*
X95980000Y-14690000D01*
X94520000Y-17650000D02*
X94520000Y-14690000D01*
X95980000Y-14690000D02*
X95980000Y-17650000D01*
X95980000Y-17650000D02*
X94520000Y-17650000D01*
X130640000Y-58210000D02*
X133600000Y-58210000D01*
X130640000Y-59670000D02*
X130640000Y-58210000D01*
X133600000Y-58210000D02*
X133600000Y-59670000D01*
X133600000Y-59670000D02*
X130640000Y-59670000D01*
X111030000Y-75355000D02*
X112490000Y-75355000D01*
X111030000Y-78315000D02*
X111030000Y-75355000D01*
X112490000Y-75355000D02*
X112490000Y-78315000D01*
X112490000Y-78315000D02*
X111030000Y-78315000D01*
X26105000Y-55395000D02*
X29065000Y-55395000D01*
X26105000Y-56855000D02*
X26105000Y-55395000D01*
X29065000Y-55395000D02*
X29065000Y-56855000D01*
X29065000Y-56855000D02*
X26105000Y-56855000D01*
X81730000Y-89980000D02*
X83190000Y-89980000D01*
X81730000Y-92940000D02*
X81730000Y-89980000D01*
X83190000Y-89980000D02*
X83190000Y-92940000D01*
X83190000Y-92940000D02*
X81730000Y-92940000D01*
X58860000Y-53610000D02*
X61820000Y-53610000D01*
X58860000Y-55070000D02*
X58860000Y-53610000D01*
X61820000Y-53610000D02*
X61820000Y-55070000D01*
X61820000Y-55070000D02*
X58860000Y-55070000D01*
X52280000Y-34960000D02*
X55980000Y-34960000D01*
X52280000Y-36860000D02*
X52280000Y-34960000D01*
X55980000Y-34960000D02*
X55980000Y-36860000D01*
X55980000Y-36860000D02*
X52280000Y-36860000D01*
X52250000Y-27960000D02*
X55950000Y-27960000D01*
X52250000Y-29860000D02*
X52250000Y-27960000D01*
X55950000Y-27960000D02*
X55950000Y-29860000D01*
X55950000Y-29860000D02*
X52250000Y-29860000D01*
X157410000Y-64320000D02*
X160370000Y-64320000D01*
X157410000Y-65780000D02*
X157410000Y-64320000D01*
X160370000Y-64320000D02*
X160370000Y-65780000D01*
X160370000Y-65780000D02*
X157410000Y-65780000D01*
X64880000Y-23480000D02*
X66340000Y-23480000D01*
X64880000Y-26440000D02*
X64880000Y-23480000D01*
X66340000Y-23480000D02*
X66340000Y-26440000D01*
X66340000Y-26440000D02*
X64880000Y-26440000D01*
X28210000Y-19600000D02*
X31910000Y-19600000D01*
X28210000Y-21500000D02*
X28210000Y-19600000D01*
X31910000Y-19600000D02*
X31910000Y-21500000D01*
X31910000Y-21500000D02*
X28210000Y-21500000D01*
X109080000Y-72420000D02*
X112040000Y-72420000D01*
X109080000Y-73880000D02*
X109080000Y-72420000D01*
X112040000Y-72420000D02*
X112040000Y-73880000D01*
X112040000Y-73880000D02*
X109080000Y-73880000D01*
X60550000Y-85830000D02*
X63510000Y-85830000D01*
X60550000Y-87290000D02*
X60550000Y-85830000D01*
X63510000Y-85830000D02*
X63510000Y-87290000D01*
X63510000Y-87290000D02*
X60550000Y-87290000D01*
D11*
X200000Y-80875000D02*
X3600000Y-80875000D01*
X200000Y-85125000D02*
X200000Y-80875000D01*
X3600000Y-80875000D02*
X3600000Y-85125000D01*
X3600000Y-85125000D02*
X200000Y-85125000D01*
D10*
X98910000Y-4680000D02*
X101870000Y-4680000D01*
X98910000Y-6140000D02*
X98910000Y-4680000D01*
X101870000Y-4680000D02*
X101870000Y-6140000D01*
X101870000Y-6140000D02*
X98910000Y-6140000D01*
X39675000Y-45655000D02*
X41135000Y-45655000D01*
X39675000Y-48615000D02*
X39675000Y-45655000D01*
X41135000Y-45655000D02*
X41135000Y-48615000D01*
X41135000Y-48615000D02*
X39675000Y-48615000D01*
X103665000Y-50102500D02*
X105125000Y-50102500D01*
X103665000Y-53062500D02*
X103665000Y-50102500D01*
X105125000Y-50102500D02*
X105125000Y-53062500D01*
X105125000Y-53062500D02*
X103665000Y-53062500D01*
X21155000Y-49185000D02*
X24855000Y-49185000D01*
X21155000Y-51085000D02*
X21155000Y-49185000D01*
X24855000Y-49185000D02*
X24855000Y-51085000D01*
X24855000Y-51085000D02*
X21155000Y-51085000D01*
X54080000Y-47780000D02*
X55540000Y-47780000D01*
X54080000Y-50740000D02*
X54080000Y-47780000D01*
X55540000Y-47780000D02*
X55540000Y-50740000D01*
X55540000Y-50740000D02*
X54080000Y-50740000D01*
X123330000Y-60300000D02*
X124790000Y-60300000D01*
X123330000Y-63260000D02*
X123330000Y-60300000D01*
X124790000Y-60300000D02*
X124790000Y-63260000D01*
X124790000Y-63260000D02*
X123330000Y-63260000D01*
X38985000Y-58025000D02*
X42685000Y-58025000D01*
X38985000Y-59925000D02*
X38985000Y-58025000D01*
X42685000Y-58025000D02*
X42685000Y-59925000D01*
X42685000Y-59925000D02*
X38985000Y-59925000D01*
X18135000Y-22115000D02*
X19595000Y-22115000D01*
X18135000Y-25075000D02*
X18135000Y-22115000D01*
X19595000Y-22115000D02*
X19595000Y-25075000D01*
X19595000Y-25075000D02*
X18135000Y-25075000D01*
X130650000Y-56350000D02*
X133610000Y-56350000D01*
X130650000Y-57810000D02*
X130650000Y-56350000D01*
X133610000Y-56350000D02*
X133610000Y-57810000D01*
X133610000Y-57810000D02*
X130650000Y-57810000D01*
X112270000Y-72430000D02*
X115230000Y-72430000D01*
X112270000Y-73890000D02*
X112270000Y-72430000D01*
X115230000Y-72430000D02*
X115230000Y-73890000D01*
X115230000Y-73890000D02*
X112270000Y-73890000D01*
X50360000Y-55360000D02*
X54060000Y-55360000D01*
X50360000Y-57260000D02*
X50360000Y-55360000D01*
X54060000Y-55360000D02*
X54060000Y-57260000D01*
X54060000Y-57260000D02*
X50360000Y-57260000D01*
X52230000Y-31460000D02*
X55930000Y-31460000D01*
X52230000Y-33360000D02*
X52230000Y-31460000D01*
X55930000Y-31460000D02*
X55930000Y-33360000D01*
X55930000Y-33360000D02*
X52230000Y-33360000D01*
X110788000Y-80423000D02*
X113748000Y-80423000D01*
X110788000Y-81883000D02*
X110788000Y-80423000D01*
X113748000Y-80423000D02*
X113748000Y-81883000D01*
X113748000Y-81883000D02*
X110788000Y-81883000D01*
X148680000Y-45410000D02*
X155180000Y-45410000D01*
X148680000Y-55410000D02*
X148680000Y-45410000D01*
X155180000Y-45410000D02*
X155180000Y-55410000D01*
X155180000Y-55410000D02*
X148680000Y-55410000D01*
X64515000Y-12525000D02*
X64515000Y-19525000D01*
X64515000Y-19525000D02*
X72315000Y-19525000D01*
X72315000Y-12525000D02*
X64515000Y-12525000D01*
X72315000Y-19525000D02*
X72315000Y-12525000D01*
X44330000Y-33900000D02*
X45790000Y-33900000D01*
X44330000Y-36860000D02*
X44330000Y-33900000D01*
X45790000Y-33900000D02*
X45790000Y-36860000D01*
X45790000Y-36860000D02*
X44330000Y-36860000D01*
X1890000Y-44530000D02*
X4850000Y-44530000D01*
X1890000Y-45990000D02*
X1890000Y-44530000D01*
X4850000Y-44530000D02*
X4850000Y-45990000D01*
X4850000Y-45990000D02*
X1890000Y-45990000D01*
X21175000Y-52435000D02*
X24875000Y-52435000D01*
X21175000Y-54335000D02*
X21175000Y-52435000D01*
X24875000Y-52435000D02*
X24875000Y-54335000D01*
X24875000Y-54335000D02*
X21175000Y-54335000D01*
X92790000Y-34360000D02*
X95750000Y-34360000D01*
X92790000Y-35820000D02*
X92790000Y-34360000D01*
X95750000Y-34360000D02*
X95750000Y-35820000D01*
X95750000Y-35820000D02*
X92790000Y-35820000D01*
X76490000Y-11320000D02*
X77950000Y-11320000D01*
X76490000Y-14280000D02*
X76490000Y-11320000D01*
X77950000Y-11320000D02*
X77950000Y-14280000D01*
X77950000Y-14280000D02*
X76490000Y-14280000D01*
X124260000Y-23980000D02*
X125720000Y-23980000D01*
X124260000Y-26940000D02*
X124260000Y-23980000D01*
X125720000Y-23980000D02*
X125720000Y-26940000D01*
X125720000Y-26940000D02*
X124260000Y-26940000D01*
X126536000Y-80550000D02*
X129496000Y-80550000D01*
X126536000Y-82010000D02*
X126536000Y-80550000D01*
X129496000Y-80550000D02*
X129496000Y-82010000D01*
X129496000Y-82010000D02*
X126536000Y-82010000D01*
X153390000Y-16030000D02*
X153390000Y-19230000D01*
X155290000Y-16030000D02*
X153390000Y-16030000D01*
X155290000Y-16030000D02*
X155290000Y-19230000D01*
X155290000Y-19230000D02*
X153390000Y-19230000D01*
X79450000Y-9690000D02*
X79450000Y-13530000D01*
X79450000Y-13530000D02*
X82850000Y-13530000D01*
X82850000Y-9690000D02*
X79450000Y-9690000D01*
X82850000Y-13530000D02*
X82850000Y-9690000D01*
X89990000Y-25720000D02*
X91450000Y-25720000D01*
X89990000Y-28680000D02*
X89990000Y-25720000D01*
X91450000Y-25720000D02*
X91450000Y-28680000D01*
X91450000Y-28680000D02*
X89990000Y-28680000D01*
X92790000Y-32370000D02*
X95750000Y-32370000D01*
X92790000Y-33830000D02*
X92790000Y-32370000D01*
X95750000Y-32370000D02*
X95750000Y-33830000D01*
X95750000Y-33830000D02*
X92790000Y-33830000D01*
X21175000Y-15700000D02*
X25775000Y-15700000D01*
X21175000Y-18000000D02*
X21175000Y-15700000D01*
X25775000Y-15700000D02*
X25775000Y-18000000D01*
X25775000Y-18000000D02*
X21175000Y-18000000D01*
X6971000Y-3549000D02*
X11571000Y-3549000D01*
X6971000Y-5849000D02*
X6971000Y-3549000D01*
X11571000Y-3549000D02*
X11571000Y-5849000D01*
X11571000Y-5849000D02*
X6971000Y-5849000D01*
X99310000Y-16280000D02*
X102270000Y-16280000D01*
X99310000Y-17740000D02*
X99310000Y-16280000D01*
X102270000Y-16280000D02*
X102270000Y-17740000D01*
X102270000Y-17740000D02*
X99310000Y-17740000D01*
X32975000Y-42305000D02*
X36675000Y-42305000D01*
X32975000Y-44205000D02*
X32975000Y-42305000D01*
X36675000Y-42305000D02*
X36675000Y-44205000D01*
X36675000Y-44205000D02*
X32975000Y-44205000D01*
X67810000Y-88220000D02*
X69270000Y-88220000D01*
X67810000Y-91180000D02*
X67810000Y-88220000D01*
X69270000Y-88220000D02*
X69270000Y-91180000D01*
X69270000Y-91180000D02*
X67810000Y-91180000D01*
X59100000Y-26377500D02*
X60560000Y-26377500D01*
X59100000Y-29337500D02*
X59100000Y-26377500D01*
X60560000Y-26377500D02*
X60560000Y-29337500D01*
X60560000Y-29337500D02*
X59100000Y-29337500D01*
X6991000Y-6119000D02*
X11551000Y-6119000D01*
X6991000Y-8359000D02*
X6991000Y-6119000D01*
X11551000Y-6119000D02*
X11551000Y-8359000D01*
X11551000Y-8359000D02*
X6991000Y-8359000D01*
X51595000Y-51575000D02*
X53055000Y-51575000D01*
X51595000Y-54535000D02*
X51595000Y-51575000D01*
X53055000Y-51575000D02*
X53055000Y-54535000D01*
X53055000Y-54535000D02*
X51595000Y-54535000D01*
X117835000Y-16430000D02*
X119295000Y-16430000D01*
X117835000Y-19390000D02*
X117835000Y-16430000D01*
X119295000Y-16430000D02*
X119295000Y-19390000D01*
X119295000Y-19390000D02*
X117835000Y-19390000D01*
X130889000Y-61460000D02*
X130889000Y-68360000D01*
X130889000Y-68360000D02*
X139689000Y-68360000D01*
X139689000Y-61460000D02*
X130889000Y-61460000D01*
X139689000Y-68360000D02*
X139689000Y-61460000D01*
X101525500Y-76249000D02*
X101525500Y-84509000D01*
X101525500Y-84509000D02*
X109785500Y-84509000D01*
X109785500Y-76249000D02*
X101525500Y-76249000D01*
X109785500Y-84509000D02*
X109785500Y-76249000D01*
X154120000Y-66170000D02*
X157080000Y-66170000D01*
X154120000Y-67630000D02*
X154120000Y-66170000D01*
X157080000Y-66170000D02*
X157080000Y-67630000D01*
X157080000Y-67630000D02*
X154120000Y-67630000D01*
X8300000Y-72500000D02*
X9760000Y-72500000D01*
X8300000Y-75460000D02*
X8300000Y-72500000D01*
X9760000Y-72500000D02*
X9760000Y-75460000D01*
X9760000Y-75460000D02*
X8300000Y-75460000D01*
X146348000Y-91218000D02*
X149308000Y-91218000D01*
X146348000Y-92678000D02*
X146348000Y-91218000D01*
X149308000Y-91218000D02*
X149308000Y-92678000D01*
X149308000Y-92678000D02*
X146348000Y-92678000D01*
X121900000Y-85260000D02*
X124860000Y-85260000D01*
X121900000Y-86720000D02*
X121900000Y-85260000D01*
X124860000Y-85260000D02*
X124860000Y-86720000D01*
X124860000Y-86720000D02*
X121900000Y-86720000D01*
X84950000Y-70380000D02*
X86410000Y-70380000D01*
X84950000Y-73340000D02*
X84950000Y-70380000D01*
X86410000Y-70380000D02*
X86410000Y-73340000D01*
X86410000Y-73340000D02*
X84950000Y-73340000D01*
X76590000Y-25660000D02*
X78050000Y-25660000D01*
X76590000Y-28620000D02*
X76590000Y-25660000D01*
X78050000Y-25660000D02*
X78050000Y-28620000D01*
X78050000Y-28620000D02*
X76590000Y-28620000D01*
X24045000Y-45635000D02*
X25505000Y-45635000D01*
X24045000Y-48595000D02*
X24045000Y-45635000D01*
X25505000Y-45635000D02*
X25505000Y-48595000D01*
X25505000Y-48595000D02*
X24045000Y-48595000D01*
X101200000Y-25350000D02*
X103100000Y-25350000D01*
X101200000Y-29050000D02*
X101200000Y-25350000D01*
X103100000Y-25350000D02*
X103100000Y-29050000D01*
X103100000Y-29050000D02*
X101200000Y-29050000D01*
X120186000Y-87281000D02*
X123146000Y-87281000D01*
X120186000Y-88741000D02*
X120186000Y-87281000D01*
X123146000Y-87281000D02*
X123146000Y-88741000D01*
X123146000Y-88741000D02*
X120186000Y-88741000D01*
X124175000Y-7480000D02*
X125635000Y-7480000D01*
X124175000Y-10440000D02*
X124175000Y-7480000D01*
X125635000Y-7480000D02*
X125635000Y-10440000D01*
X125635000Y-10440000D02*
X124175000Y-10440000D01*
X109252000Y-85261000D02*
X110712000Y-85261000D01*
X109252000Y-88221000D02*
X109252000Y-85261000D01*
X110712000Y-85261000D02*
X110712000Y-88221000D01*
X110712000Y-88221000D02*
X109252000Y-88221000D01*
X121500000Y-60320000D02*
X122960000Y-60320000D01*
X121500000Y-63280000D02*
X121500000Y-60320000D01*
X122960000Y-60320000D02*
X122960000Y-63280000D01*
X122960000Y-63280000D02*
X121500000Y-63280000D01*
X104010000Y-26100000D02*
X105470000Y-26100000D01*
X104010000Y-29060000D02*
X104010000Y-26100000D01*
X105470000Y-26100000D02*
X105470000Y-29060000D01*
X105470000Y-29060000D02*
X104010000Y-29060000D01*
X40130000Y-16860000D02*
X42030000Y-16860000D01*
X40130000Y-20560000D02*
X40130000Y-16860000D01*
X42030000Y-16860000D02*
X42030000Y-20560000D01*
X42030000Y-20560000D02*
X40130000Y-20560000D01*
X44545000Y-42205000D02*
X48245000Y-42205000D01*
X44545000Y-44105000D02*
X44545000Y-42205000D01*
X48245000Y-42205000D02*
X48245000Y-44105000D01*
X48245000Y-44105000D02*
X44545000Y-44105000D01*
X45092500Y-28910000D02*
X45092500Y-33170000D01*
X45092500Y-33170000D02*
X49352500Y-33170000D01*
X49352500Y-28910000D02*
X45092500Y-28910000D01*
X49352500Y-33170000D02*
X49352500Y-28910000D01*
X110788000Y-78772000D02*
X113748000Y-78772000D01*
X110788000Y-80232000D02*
X110788000Y-78772000D01*
X113748000Y-78772000D02*
X113748000Y-80232000D01*
X113748000Y-80232000D02*
X110788000Y-80232000D01*
X52275000Y-16060000D02*
X55975000Y-16060000D01*
X52275000Y-17960000D02*
X52275000Y-16060000D01*
X55975000Y-16060000D02*
X55975000Y-17960000D01*
X55975000Y-17960000D02*
X52275000Y-17960000D01*
X105708000Y-85249000D02*
X108668000Y-85249000D01*
X105708000Y-86709000D02*
X105708000Y-85249000D01*
X108668000Y-85249000D02*
X108668000Y-86709000D01*
X108668000Y-86709000D02*
X105708000Y-86709000D01*
X96905000Y-6575000D02*
X96905000Y-11975000D01*
X96905000Y-11975000D02*
X104305000Y-11975000D01*
X104305000Y-6575000D02*
X96905000Y-6575000D01*
X104305000Y-11975000D02*
X104305000Y-6575000D01*
X98500000Y-76140000D02*
X101460000Y-76140000D01*
X98500000Y-77600000D02*
X98500000Y-76140000D01*
X101460000Y-76140000D02*
X101460000Y-77600000D01*
X101460000Y-77600000D02*
X98500000Y-77600000D01*
X121480000Y-46540000D02*
X122940000Y-46540000D01*
X121480000Y-49500000D02*
X121480000Y-46540000D01*
X122940000Y-46540000D02*
X122940000Y-49500000D01*
X122940000Y-49500000D02*
X121480000Y-49500000D01*
X84520000Y-15545000D02*
X84520000Y-20945000D01*
X84520000Y-20945000D02*
X91920000Y-20945000D01*
X91920000Y-15545000D02*
X84520000Y-15545000D01*
X91920000Y-20945000D02*
X91920000Y-15545000D01*
X116090000Y-85330000D02*
X118050000Y-85330000D01*
X116090000Y-88730000D02*
X116090000Y-85330000D01*
X118050000Y-85330000D02*
X118050000Y-88730000D01*
X118050000Y-88730000D02*
X116090000Y-88730000D01*
X2016000Y-2921000D02*
G75*
G02*
X16000Y-2921000I-1000000J0D01*
G01*
X16000Y-2921000D02*
G75*
G02*
X2016000Y-2921000I1000000J0D01*
G01*
X34440000Y-14690000D02*
X38140000Y-14690000D01*
X34440000Y-16590000D02*
X34440000Y-14690000D01*
X38140000Y-14690000D02*
X38140000Y-16590000D01*
X38140000Y-16590000D02*
X34440000Y-16590000D01*
X83590000Y-89920000D02*
X86550000Y-89920000D01*
X83590000Y-91380000D02*
X83590000Y-89920000D01*
X86550000Y-89920000D02*
X86550000Y-91380000D01*
X86550000Y-91380000D02*
X83590000Y-91380000D01*
D11*
X-2000000Y-47200000D02*
X-2000000Y-52800000D01*
X-2000000Y-47200000D02*
X12350000Y-47200000D01*
X-2000000Y-52800000D02*
X12350000Y-52800000D01*
X12350000Y-47200000D02*
X12350000Y-52800000D01*
D10*
X89670000Y-21630000D02*
X89670000Y-25470000D01*
X89670000Y-25470000D02*
X93070000Y-25470000D01*
X93070000Y-21630000D02*
X89670000Y-21630000D01*
X93070000Y-25470000D02*
X93070000Y-21630000D01*
X90040000Y-29410000D02*
X91940000Y-29410000D01*
X90040000Y-33110000D02*
X90040000Y-29410000D01*
X91940000Y-29410000D02*
X91940000Y-33110000D01*
X91940000Y-33110000D02*
X90040000Y-33110000D01*
X98640000Y-33190000D02*
X100540000Y-33190000D01*
X98640000Y-36890000D02*
X98640000Y-33190000D01*
X100540000Y-33190000D02*
X100540000Y-36890000D01*
X100540000Y-36890000D02*
X98640000Y-36890000D01*
X52275000Y-19560000D02*
X55975000Y-19560000D01*
X52275000Y-21460000D02*
X52275000Y-19560000D01*
X55975000Y-19560000D02*
X55975000Y-21460000D01*
X55975000Y-21460000D02*
X52275000Y-21460000D01*
X61450000Y-92400000D02*
G75*
G02*
X55350000Y-92400000I-3050000J0D01*
G01*
X55350000Y-92400000D02*
G75*
G02*
X61450000Y-92400000I3050000J0D01*
G01*
X64585000Y-26975000D02*
X64585000Y-33975000D01*
X64585000Y-33975000D02*
X72385000Y-33975000D01*
X72385000Y-26975000D02*
X64585000Y-26975000D01*
X72385000Y-33975000D02*
X72385000Y-26975000D01*
X12540000Y-88500000D02*
X14000000Y-88500000D01*
X12540000Y-91460000D02*
X12540000Y-88500000D01*
X14000000Y-88500000D02*
X14000000Y-91460000D01*
X14000000Y-91460000D02*
X12540000Y-91460000D01*
X20090000Y-21580000D02*
X20090000Y-28980000D01*
X20090000Y-28980000D02*
X25490000Y-28980000D01*
X25490000Y-21580000D02*
X20090000Y-21580000D01*
X25490000Y-28980000D02*
X25490000Y-21580000D01*
X154230000Y-59160000D02*
X159430000Y-59160000D01*
X154230000Y-63960000D02*
X154230000Y-59160000D01*
X159430000Y-59160000D02*
X159430000Y-63960000D01*
X159430000Y-63960000D02*
X154230000Y-63960000D01*
X14300000Y-65740000D02*
X15760000Y-65740000D01*
X14300000Y-68700000D02*
X14300000Y-65740000D01*
X15760000Y-65740000D02*
X15760000Y-68700000D01*
X15760000Y-68700000D02*
X14300000Y-68700000D01*
X98900000Y-77780000D02*
X100360000Y-77780000D01*
X98900000Y-80740000D02*
X98900000Y-77780000D01*
X100360000Y-77780000D02*
X100360000Y-80740000D01*
X100360000Y-80740000D02*
X98900000Y-80740000D01*
X46265000Y-20590000D02*
X49225000Y-20590000D01*
X46265000Y-22050000D02*
X46265000Y-20590000D01*
X49225000Y-20590000D02*
X49225000Y-22050000D01*
X49225000Y-22050000D02*
X46265000Y-22050000D01*
X68480000Y-23520000D02*
X69940000Y-23520000D01*
X68480000Y-26480000D02*
X68480000Y-23520000D01*
X69940000Y-23520000D02*
X69940000Y-26480000D01*
X69940000Y-26480000D02*
X68480000Y-26480000D01*
X25950000Y-23730000D02*
X27410000Y-23730000D01*
X25950000Y-26690000D02*
X25950000Y-23730000D01*
X27410000Y-23730000D02*
X27410000Y-26690000D01*
X27410000Y-26690000D02*
X25950000Y-26690000D01*
X26360000Y-86520000D02*
X30920000Y-86520000D01*
X26360000Y-88760000D02*
X26360000Y-86520000D01*
X30920000Y-86520000D02*
X30920000Y-88760000D01*
X30920000Y-88760000D02*
X26360000Y-88760000D01*
X14650000Y-30290000D02*
X17950000Y-30290000D01*
X14650000Y-31750000D02*
X14650000Y-30290000D01*
X17950000Y-30290000D02*
X17950000Y-31750000D01*
X17950000Y-31750000D02*
X14650000Y-31750000D01*
X123320000Y-50100000D02*
X124780000Y-50100000D01*
X123320000Y-53060000D02*
X123320000Y-50100000D01*
X124780000Y-50100000D02*
X124780000Y-53060000D01*
X124780000Y-53060000D02*
X123320000Y-53060000D01*
X136830000Y-30900000D02*
X138290000Y-30900000D01*
X136830000Y-33860000D02*
X136830000Y-30900000D01*
X138290000Y-30900000D02*
X138290000Y-33860000D01*
X138290000Y-33860000D02*
X136830000Y-33860000D01*
X45655000Y-11710000D02*
X48615000Y-11710000D01*
X45655000Y-13170000D02*
X45655000Y-11710000D01*
X48615000Y-11710000D02*
X48615000Y-13170000D01*
X48615000Y-13170000D02*
X45655000Y-13170000D01*
X126000000Y-16180000D02*
X127460000Y-16180000D01*
X126000000Y-19140000D02*
X126000000Y-16180000D01*
X127460000Y-16180000D02*
X127460000Y-19140000D01*
X127460000Y-19140000D02*
X126000000Y-19140000D01*
X25800000Y-11810000D02*
X27700000Y-11810000D01*
X25800000Y-15510000D02*
X25800000Y-11810000D01*
X27700000Y-11810000D02*
X27700000Y-15510000D01*
X27700000Y-15510000D02*
X25800000Y-15510000D01*
X-6500000Y-17300000D02*
X-6500000Y-8700000D01*
X-6500000Y-17300000D02*
X9800000Y-17300000D01*
X9800000Y-8700000D02*
X-6500000Y-8700000D01*
X9800000Y-8700000D02*
X9800000Y-17300000D01*
X27110000Y-42300000D02*
X30810000Y-42300000D01*
X27110000Y-44200000D02*
X27110000Y-42300000D01*
X30810000Y-42300000D02*
X30810000Y-44200000D01*
X30810000Y-44200000D02*
X27110000Y-44200000D01*
X58047500Y-45590000D02*
X58047500Y-51090000D01*
X58047500Y-51090000D02*
X65747500Y-51090000D01*
X65747500Y-45590000D02*
X58047500Y-45590000D01*
X65747500Y-51090000D02*
X65747500Y-45590000D01*
X92300000Y-14670000D02*
X93760000Y-14670000D01*
X92300000Y-17630000D02*
X92300000Y-14670000D01*
X93760000Y-14670000D02*
X93760000Y-17630000D01*
X93760000Y-17630000D02*
X92300000Y-17630000D01*
X113616000Y-74077000D02*
X117016000Y-74077000D01*
X113616000Y-76037000D02*
X113616000Y-74077000D01*
X117016000Y-74077000D02*
X117016000Y-76037000D01*
X117016000Y-76037000D02*
X113616000Y-76037000D01*
X44325000Y-18620000D02*
X45785000Y-18620000D01*
X44325000Y-21580000D02*
X44325000Y-18620000D01*
X45785000Y-18620000D02*
X45785000Y-21580000D01*
X45785000Y-21580000D02*
X44325000Y-21580000D01*
X131180000Y-31470000D02*
X135780000Y-31470000D01*
X131180000Y-33770000D02*
X131180000Y-31470000D01*
X135780000Y-31470000D02*
X135780000Y-33770000D01*
X135780000Y-33770000D02*
X131180000Y-33770000D01*
X53435000Y-51575000D02*
X54895000Y-51575000D01*
X53435000Y-54535000D02*
X53435000Y-51575000D01*
X54895000Y-51575000D02*
X54895000Y-54535000D01*
X54895000Y-54535000D02*
X53435000Y-54535000D01*
X28220000Y-35390000D02*
X31920000Y-35390000D01*
X28220000Y-37290000D02*
X28220000Y-35390000D01*
X31920000Y-35390000D02*
X31920000Y-37290000D01*
X31920000Y-37290000D02*
X28220000Y-37290000D01*
X60980000Y-26377500D02*
X62440000Y-26377500D01*
X60980000Y-29337500D02*
X60980000Y-26377500D01*
X62440000Y-26377500D02*
X62440000Y-29337500D01*
X62440000Y-29337500D02*
X60980000Y-29337500D01*
X44815000Y-45085000D02*
X47775000Y-45085000D01*
X44815000Y-46545000D02*
X44815000Y-45085000D01*
X47775000Y-45085000D02*
X47775000Y-46545000D01*
X47775000Y-46545000D02*
X44815000Y-46545000D01*
X112420000Y-7435000D02*
X113880000Y-7435000D01*
X112420000Y-10395000D02*
X112420000Y-7435000D01*
X113880000Y-7435000D02*
X113880000Y-10395000D01*
X113880000Y-10395000D02*
X112420000Y-10395000D01*
X112510000Y-24270000D02*
X113970000Y-24270000D01*
X112510000Y-27230000D02*
X112510000Y-24270000D01*
X113970000Y-24270000D02*
X113970000Y-27230000D01*
X113970000Y-27230000D02*
X112510000Y-27230000D01*
X24500000Y-71350000D02*
X28500000Y-71350000D01*
X24500000Y-79950000D02*
X24500000Y-71350000D01*
X28500000Y-71350000D02*
X28500000Y-79950000D01*
X28500000Y-79950000D02*
X24500000Y-79950000D01*
X117880000Y-24260000D02*
X119340000Y-24260000D01*
X117880000Y-27220000D02*
X117880000Y-24260000D01*
X119340000Y-24260000D02*
X119340000Y-27220000D01*
X119340000Y-27220000D02*
X117880000Y-27220000D01*
X59090000Y-11927500D02*
X60550000Y-11927500D01*
X59090000Y-14887500D02*
X59090000Y-11927500D01*
X60550000Y-11927500D02*
X60550000Y-14887500D01*
X60550000Y-14887500D02*
X59090000Y-14887500D01*
X64165000Y-51835000D02*
X65625000Y-51835000D01*
X64165000Y-54795000D02*
X64165000Y-51835000D01*
X65625000Y-51835000D02*
X65625000Y-54795000D01*
X65625000Y-54795000D02*
X64165000Y-54795000D01*
X120075000Y-11125000D02*
X120075000Y-7525000D01*
X123175000Y-7525000D02*
X120075000Y-7525000D01*
X123175000Y-11125000D02*
X120075000Y-11125000D01*
X123175000Y-11125000D02*
X123175000Y-7525000D01*
X159553000Y-93997000D02*
G75*
G02*
X153453000Y-93997000I-3050000J0D01*
G01*
X153453000Y-93997000D02*
G75*
G02*
X159553000Y-93997000I3050000J0D01*
G01*
X34420000Y-35390000D02*
X38120000Y-35390000D01*
X34420000Y-37290000D02*
X34420000Y-35390000D01*
X38120000Y-35390000D02*
X38120000Y-37290000D01*
X38120000Y-37290000D02*
X34420000Y-37290000D01*
X123310000Y-46530000D02*
X124770000Y-46530000D01*
X123310000Y-49490000D02*
X123310000Y-46530000D01*
X124770000Y-46530000D02*
X124770000Y-49490000D01*
X124770000Y-49490000D02*
X123310000Y-49490000D01*
X130670000Y-52670000D02*
X133630000Y-52670000D01*
X130670000Y-54130000D02*
X130670000Y-52670000D01*
X133630000Y-52670000D02*
X133630000Y-54130000D01*
X133630000Y-54130000D02*
X130670000Y-54130000D01*
X126950000Y-64410000D02*
X128910000Y-64410000D01*
X126950000Y-67810000D02*
X126950000Y-64410000D01*
X128910000Y-64410000D02*
X128910000Y-67810000D01*
X128910000Y-67810000D02*
X126950000Y-67810000D01*
X6717000Y-94100000D02*
X11317000Y-94100000D01*
X6717000Y-96400000D02*
X6717000Y-94100000D01*
X11317000Y-94100000D02*
X11317000Y-96400000D01*
X11317000Y-96400000D02*
X6717000Y-96400000D01*
X124200000Y-16180000D02*
X125660000Y-16180000D01*
X124200000Y-19140000D02*
X124200000Y-16180000D01*
X125660000Y-16180000D02*
X125660000Y-19140000D01*
X125660000Y-19140000D02*
X124200000Y-19140000D01*
X126443000Y-74712000D02*
X129843000Y-74712000D01*
X126443000Y-76672000D02*
X126443000Y-74712000D01*
X129843000Y-74712000D02*
X129843000Y-76672000D01*
X129843000Y-76672000D02*
X126443000Y-76672000D01*
X69000000Y-94030000D02*
X71960000Y-94030000D01*
X69000000Y-95490000D02*
X69000000Y-94030000D01*
X71960000Y-94030000D02*
X71960000Y-95490000D01*
X71960000Y-95490000D02*
X69000000Y-95490000D01*
X130730000Y-46810000D02*
X133690000Y-46810000D01*
X130730000Y-48270000D02*
X130730000Y-46810000D01*
X133690000Y-46810000D02*
X133690000Y-48270000D01*
X133690000Y-48270000D02*
X130730000Y-48270000D01*
X101850000Y-29910000D02*
X103750000Y-29910000D01*
X101850000Y-33610000D02*
X101850000Y-29910000D01*
X103750000Y-29910000D02*
X103750000Y-33610000D01*
X103750000Y-33610000D02*
X101850000Y-33610000D01*
X49725000Y-18570000D02*
X51185000Y-18570000D01*
X49725000Y-21530000D02*
X49725000Y-18570000D01*
X51185000Y-18570000D02*
X51185000Y-21530000D01*
X51185000Y-21530000D02*
X49725000Y-21530000D01*
X94310000Y-10370000D02*
X95770000Y-10370000D01*
X94310000Y-13330000D02*
X94310000Y-10370000D01*
X95770000Y-10370000D02*
X95770000Y-13330000D01*
X95770000Y-13330000D02*
X94310000Y-13330000D01*
X81050000Y-70380000D02*
X82510000Y-70380000D01*
X81050000Y-73340000D02*
X81050000Y-70380000D01*
X82510000Y-70380000D02*
X82510000Y-73340000D01*
X82510000Y-73340000D02*
X81050000Y-73340000D01*
X49735000Y-49705000D02*
X52695000Y-49705000D01*
X49735000Y-51165000D02*
X49735000Y-49705000D01*
X52695000Y-49705000D02*
X52695000Y-51165000D01*
X52695000Y-51165000D02*
X49735000Y-51165000D01*
X16190000Y-15087500D02*
X18090000Y-15087500D01*
X16190000Y-18287500D02*
X16190000Y-15087500D01*
X16190000Y-18287500D02*
X18090000Y-18287500D01*
X18090000Y-18287500D02*
X18090000Y-15087500D01*
X114237500Y-7430000D02*
X115697500Y-7430000D01*
X114237500Y-10390000D02*
X114237500Y-7430000D01*
X115697500Y-7430000D02*
X115697500Y-10390000D01*
X115697500Y-10390000D02*
X114237500Y-10390000D01*
X77870000Y-89990000D02*
X79330000Y-89990000D01*
X77870000Y-92950000D02*
X77870000Y-89990000D01*
X79330000Y-89990000D02*
X79330000Y-92950000D01*
X79330000Y-92950000D02*
X77870000Y-92950000D01*
X143720000Y-24840000D02*
X146680000Y-24840000D01*
X143720000Y-26300000D02*
X143720000Y-24840000D01*
X146680000Y-24840000D02*
X146680000Y-26300000D01*
X146680000Y-26300000D02*
X143720000Y-26300000D01*
X36620000Y-74073000D02*
X39580000Y-74073000D01*
X36620000Y-75533000D02*
X36620000Y-74073000D01*
X39580000Y-74073000D02*
X39580000Y-75533000D01*
X39580000Y-75533000D02*
X36620000Y-75533000D01*
X31450000Y-92400000D02*
G75*
G02*
X25350000Y-92400000I-3050000J0D01*
G01*
X25350000Y-92400000D02*
G75*
G02*
X31450000Y-92400000I3050000J0D01*
G01*
X147030000Y-70070000D02*
X147030000Y-63470000D01*
X153230000Y-63470000D02*
X147030000Y-63470000D01*
X153230000Y-63470000D02*
X153230000Y-70070000D01*
X153230000Y-70070000D02*
X147030000Y-70070000D01*
X68470000Y-9157500D02*
X69930000Y-9157500D01*
X68470000Y-12117500D02*
X68470000Y-9157500D01*
X69930000Y-9157500D02*
X69930000Y-12117500D01*
X69930000Y-12117500D02*
X68470000Y-12117500D01*
X72590000Y-11280000D02*
X74050000Y-11280000D01*
X72590000Y-14240000D02*
X72590000Y-11280000D01*
X74050000Y-11280000D02*
X74050000Y-14240000D01*
X74050000Y-14240000D02*
X72590000Y-14240000D01*
X92700000Y-88880000D02*
X92700000Y-85480000D01*
X92700000Y-88880000D02*
X95900000Y-88880000D01*
X95900000Y-85480000D02*
X92700000Y-85480000D01*
X95900000Y-85480000D02*
X95900000Y-88880000D01*
X65337500Y-91660000D02*
X65337500Y-95660000D01*
X65337500Y-95660000D02*
X68737500Y-95660000D01*
X68737500Y-91660000D02*
X65337500Y-91660000D01*
X68737500Y-95660000D02*
X68737500Y-91660000D01*
X160512000Y-2921000D02*
G75*
G02*
X158512000Y-2921000I-1000000J0D01*
G01*
X158512000Y-2921000D02*
G75*
G02*
X160512000Y-2921000I1000000J0D01*
G01*
X36045000Y-51535000D02*
X37505000Y-51535000D01*
X36045000Y-54495000D02*
X36045000Y-51535000D01*
X37505000Y-51535000D02*
X37505000Y-54495000D01*
X37505000Y-54495000D02*
X36045000Y-54495000D01*
X106200000Y-30230000D02*
X107660000Y-30230000D01*
X106200000Y-33190000D02*
X106200000Y-30230000D01*
X107660000Y-30230000D02*
X107660000Y-33190000D01*
X107660000Y-33190000D02*
X106200000Y-33190000D01*
X6156000Y-5512000D02*
G75*
G02*
X956000Y-5512000I-2600000J0D01*
G01*
X956000Y-5512000D02*
G75*
G02*
X6156000Y-5512000I2600000J0D01*
G01*
X104320000Y-30230000D02*
X105780000Y-30230000D01*
X104320000Y-33190000D02*
X104320000Y-30230000D01*
X105780000Y-30230000D02*
X105780000Y-33190000D01*
X105780000Y-33190000D02*
X104320000Y-33190000D01*
X119290000Y-70520000D02*
X122250000Y-70520000D01*
X119290000Y-71980000D02*
X119290000Y-70520000D01*
X122250000Y-70520000D02*
X122250000Y-71980000D01*
X122250000Y-71980000D02*
X119290000Y-71980000D01*
X41505000Y-45655000D02*
X42965000Y-45655000D01*
X41505000Y-48615000D02*
X41505000Y-45655000D01*
X42965000Y-45655000D02*
X42965000Y-48615000D01*
X42965000Y-48615000D02*
X41505000Y-48615000D01*
X99360000Y-19940000D02*
X102320000Y-19940000D01*
X99360000Y-21400000D02*
X99360000Y-19940000D01*
X102320000Y-19940000D02*
X102320000Y-21400000D01*
X102320000Y-21400000D02*
X99360000Y-21400000D01*
X37835000Y-45655000D02*
X39295000Y-45655000D01*
X37835000Y-48615000D02*
X37835000Y-45655000D01*
X39295000Y-45655000D02*
X39295000Y-48615000D01*
X39295000Y-48615000D02*
X37835000Y-48615000D01*
X105475000Y-46512500D02*
X106935000Y-46512500D01*
X105475000Y-49472500D02*
X105475000Y-46512500D01*
X106935000Y-46512500D02*
X106935000Y-49472500D01*
X106935000Y-49472500D02*
X105475000Y-49472500D01*
X92300000Y-18180000D02*
X93760000Y-18180000D01*
X92300000Y-21140000D02*
X92300000Y-18180000D01*
X93760000Y-18180000D02*
X93760000Y-21140000D01*
X93760000Y-21140000D02*
X92300000Y-21140000D01*
X31600000Y-76375000D02*
X47300000Y-76375000D01*
X31600000Y-94075000D02*
X31600000Y-76375000D01*
X47300000Y-76375000D02*
X47300000Y-94075000D01*
X47300000Y-94075000D02*
X31600000Y-94075000D01*
X1890000Y-53820000D02*
X4850000Y-53820000D01*
X1890000Y-55280000D02*
X1890000Y-53820000D01*
X4850000Y-53820000D02*
X4850000Y-55280000D01*
X4850000Y-55280000D02*
X1890000Y-55280000D01*
X85450000Y-21360000D02*
X88410000Y-21360000D01*
X85450000Y-22820000D02*
X85450000Y-21360000D01*
X88410000Y-21360000D02*
X88410000Y-22820000D01*
X88410000Y-22820000D02*
X85450000Y-22820000D01*
X88260000Y-9910000D02*
X91220000Y-9910000D01*
X88260000Y-11370000D02*
X88260000Y-9910000D01*
X91220000Y-9910000D02*
X91220000Y-11370000D01*
X91220000Y-11370000D02*
X88260000Y-11370000D01*
X114340000Y-24260000D02*
X115800000Y-24260000D01*
X114340000Y-27220000D02*
X114340000Y-24260000D01*
X115800000Y-24260000D02*
X115800000Y-27220000D01*
X115800000Y-27220000D02*
X114340000Y-27220000D01*
X40130000Y-11090000D02*
X42030000Y-11090000D01*
X40130000Y-14790000D02*
X40130000Y-11090000D01*
X42030000Y-11090000D02*
X42030000Y-14790000D01*
X42030000Y-14790000D02*
X40130000Y-14790000D01*
X141660000Y-42110000D02*
X143620000Y-42110000D01*
X141660000Y-45510000D02*
X141660000Y-42110000D01*
X143620000Y-42110000D02*
X143620000Y-45510000D01*
X143620000Y-45510000D02*
X141660000Y-45510000D01*
X34460000Y-19620000D02*
X38160000Y-19620000D01*
X34460000Y-21520000D02*
X34460000Y-19620000D01*
X38160000Y-19620000D02*
X38160000Y-21520000D01*
X38160000Y-21520000D02*
X34460000Y-21520000D01*
X59090000Y-17350000D02*
X60550000Y-17350000D01*
X59090000Y-20310000D02*
X59090000Y-17350000D01*
X60550000Y-17350000D02*
X60550000Y-20310000D01*
X60550000Y-20310000D02*
X59090000Y-20310000D01*
X120085000Y-27975000D02*
X120085000Y-24375000D01*
X123185000Y-24375000D02*
X120085000Y-24375000D01*
X123185000Y-27975000D02*
X120085000Y-27975000D01*
X123185000Y-27975000D02*
X123185000Y-24375000D01*
X130709000Y-73369026D02*
X130709000Y-90369026D01*
X130709000Y-90369026D02*
X151909000Y-90369026D01*
X151909000Y-73369026D02*
X130709000Y-73369026D01*
X151909000Y-74069026D02*
X151909000Y-73369026D01*
X151909000Y-89669026D02*
X160909000Y-89669026D01*
X151909000Y-90369026D02*
X151909000Y-89669026D01*
X160909000Y-74069026D02*
X151909000Y-74069026D01*
X160909000Y-89669026D02*
X160909000Y-74069026D01*
X74650000Y-25630000D02*
X76110000Y-25630000D01*
X74650000Y-28590000D02*
X74650000Y-25630000D01*
X76110000Y-25630000D02*
X76110000Y-28590000D01*
X76110000Y-28590000D02*
X74650000Y-28590000D01*
X125590000Y-53370000D02*
X127550000Y-53370000D01*
X125590000Y-56770000D02*
X125590000Y-53370000D01*
X127550000Y-53370000D02*
X127550000Y-56770000D01*
X127550000Y-56770000D02*
X125590000Y-56770000D01*
X32945000Y-58015000D02*
X36645000Y-58015000D01*
X32945000Y-59915000D02*
X32945000Y-58015000D01*
X36645000Y-58015000D02*
X36645000Y-59915000D01*
X36645000Y-59915000D02*
X32945000Y-59915000D01*
X49850000Y-38980000D02*
X52810000Y-38980000D01*
X49850000Y-40440000D02*
X49850000Y-38980000D01*
X52810000Y-38980000D02*
X52810000Y-40440000D01*
X52810000Y-40440000D02*
X49850000Y-40440000D01*
X130160000Y-22980000D02*
X130160000Y-29880000D01*
X130160000Y-29880000D02*
X138960000Y-29880000D01*
X138960000Y-22980000D02*
X130160000Y-22980000D01*
X138960000Y-29880000D02*
X138960000Y-22980000D01*
X70710000Y-9120000D02*
X73670000Y-9120000D01*
X70710000Y-10580000D02*
X70710000Y-9120000D01*
X73670000Y-9120000D02*
X73670000Y-10580000D01*
X73670000Y-10580000D02*
X70710000Y-10580000D01*
X99290000Y-12730000D02*
X102250000Y-12730000D01*
X99290000Y-14190000D02*
X99290000Y-12730000D01*
X102250000Y-12730000D02*
X102250000Y-14190000D01*
X102250000Y-14190000D02*
X99290000Y-14190000D01*
X49760000Y-33840000D02*
X51220000Y-33840000D01*
X49760000Y-36800000D02*
X49760000Y-33840000D01*
X51220000Y-33840000D02*
X51220000Y-36800000D01*
X51220000Y-36800000D02*
X49760000Y-36800000D01*
X18780000Y-15110000D02*
X18780000Y-18310000D01*
X20680000Y-15110000D02*
X18780000Y-15110000D01*
X20680000Y-15110000D02*
X20680000Y-18310000D01*
X20680000Y-18310000D02*
X18780000Y-18310000D01*
X46275000Y-18590000D02*
X49235000Y-18590000D01*
X46275000Y-20050000D02*
X46275000Y-18590000D01*
X49235000Y-18590000D02*
X49235000Y-20050000D01*
X49235000Y-20050000D02*
X46275000Y-20050000D01*
X99300000Y-14515000D02*
X102260000Y-14515000D01*
X99300000Y-15975000D02*
X99300000Y-14515000D01*
X102260000Y-14515000D02*
X102260000Y-15975000D01*
X102260000Y-15975000D02*
X99300000Y-15975000D01*
X80740000Y-17070000D02*
X82200000Y-17070000D01*
X80740000Y-20030000D02*
X80740000Y-17070000D01*
X82200000Y-17070000D02*
X82200000Y-20030000D01*
X82200000Y-20030000D02*
X80740000Y-20030000D01*
X150555000Y-56590000D02*
X153515000Y-56590000D01*
X150555000Y-58050000D02*
X150555000Y-56590000D01*
X153515000Y-56590000D02*
X153515000Y-58050000D01*
X153515000Y-58050000D02*
X150555000Y-58050000D01*
X104530000Y-10450000D02*
X108030000Y-10450000D01*
X104530000Y-12150000D02*
X104530000Y-10450000D01*
X108030000Y-10450000D02*
X108030000Y-12150000D01*
X108030000Y-12150000D02*
X104530000Y-12150000D01*
X65880000Y-67300000D02*
X67340000Y-67300000D01*
X65880000Y-70260000D02*
X65880000Y-67300000D01*
X67340000Y-67300000D02*
X67340000Y-70260000D01*
X67340000Y-70260000D02*
X65880000Y-70260000D01*
X64740000Y-9157500D02*
X66200000Y-9157500D01*
X64740000Y-12117500D02*
X64740000Y-9157500D01*
X66200000Y-9157500D02*
X66200000Y-12117500D01*
X66200000Y-12117500D02*
X64740000Y-12117500D01*
X133780000Y-46520000D02*
X136740000Y-46520000D01*
X133780000Y-47980000D02*
X133780000Y-46520000D01*
X136740000Y-46520000D02*
X136740000Y-47980000D01*
X136740000Y-47980000D02*
X133780000Y-47980000D01*
X76759000Y-50231000D02*
X76759000Y-52131000D01*
X76759000Y-50231000D02*
X79959000Y-50231000D01*
X76759000Y-52131000D02*
X79959000Y-52131000D01*
X79959000Y-50231000D02*
X79959000Y-52131000D01*
X34430000Y-30630000D02*
X38130000Y-30630000D01*
X34430000Y-32530000D02*
X34430000Y-30630000D01*
X38130000Y-30630000D02*
X38130000Y-32530000D01*
X38130000Y-32530000D02*
X34430000Y-32530000D01*
X104490000Y-7080000D02*
X105950000Y-7080000D01*
X104490000Y-10040000D02*
X104490000Y-7080000D01*
X105950000Y-7080000D02*
X105950000Y-10040000D01*
X105950000Y-10040000D02*
X104490000Y-10040000D01*
X106620000Y-7100000D02*
X108080000Y-7100000D01*
X106620000Y-10060000D02*
X106620000Y-7100000D01*
X108080000Y-7100000D02*
X108080000Y-10060000D01*
X108080000Y-10060000D02*
X106620000Y-10060000D01*
X126037500Y-23990000D02*
X127497500Y-23990000D01*
X126037500Y-26950000D02*
X126037500Y-23990000D01*
X127497500Y-23990000D02*
X127497500Y-26950000D01*
X127497500Y-26950000D02*
X126037500Y-26950000D01*
X85090000Y-13590000D02*
X88050000Y-13590000D01*
X85090000Y-15050000D02*
X85090000Y-13590000D01*
X88050000Y-13590000D02*
X88050000Y-15050000D01*
X88050000Y-15050000D02*
X85090000Y-15050000D01*
X31600000Y-37890000D02*
X36160000Y-37890000D01*
X31600000Y-40130000D02*
X31600000Y-37890000D01*
X36160000Y-37890000D02*
X36160000Y-40130000D01*
X36160000Y-40130000D02*
X31600000Y-40130000D01*
X43680000Y-47065000D02*
X43680000Y-54465000D01*
X43680000Y-54465000D02*
X49080000Y-54465000D01*
X49080000Y-47065000D02*
X43680000Y-47065000D01*
X49080000Y-54465000D02*
X49080000Y-47065000D01*
X119678000Y-74200000D02*
X122638000Y-74200000D01*
X119678000Y-75660000D02*
X119678000Y-74200000D01*
X122638000Y-74200000D02*
X122638000Y-75660000D01*
X122638000Y-75660000D02*
X119678000Y-75660000D01*
X131380000Y-37080000D02*
X131380000Y-45880000D01*
X131380000Y-45880000D02*
X138280000Y-45880000D01*
X138280000Y-37080000D02*
X131380000Y-37080000D01*
X138280000Y-45880000D02*
X138280000Y-37080000D01*
X17920000Y-32417500D02*
X19820000Y-32417500D01*
X17920000Y-35617500D02*
X17920000Y-32417500D01*
X17920000Y-35617500D02*
X19820000Y-35617500D01*
X19820000Y-35617500D02*
X19820000Y-32417500D01*
X124310000Y-72940000D02*
X125770000Y-72940000D01*
X124310000Y-75900000D02*
X124310000Y-72940000D01*
X125770000Y-72940000D02*
X125770000Y-75900000D01*
X125770000Y-75900000D02*
X124310000Y-75900000D01*
X120082500Y-20152500D02*
X120082500Y-16552500D01*
X123182500Y-16552500D02*
X120082500Y-16552500D01*
X123182500Y-20152500D02*
X120082500Y-20152500D01*
X123182500Y-20152500D02*
X123182500Y-16552500D01*
X92260000Y-10370000D02*
X93720000Y-10370000D01*
X92260000Y-13330000D02*
X92260000Y-10370000D01*
X93720000Y-10370000D02*
X93720000Y-13330000D01*
X93720000Y-13330000D02*
X92260000Y-13330000D01*
X60920000Y-11927500D02*
X62380000Y-11927500D01*
X60920000Y-14887500D02*
X60920000Y-11927500D01*
X62380000Y-11927500D02*
X62380000Y-14887500D01*
X62380000Y-14887500D02*
X60920000Y-14887500D01*
X40760000Y-37310000D02*
X40760000Y-40710000D01*
X40760000Y-40710000D02*
X44600000Y-40710000D01*
X44600000Y-37310000D02*
X40760000Y-37310000D01*
X44600000Y-40710000D02*
X44600000Y-37310000D01*
X126560000Y-70090000D02*
X126560000Y-73840000D01*
X126560000Y-70090000D02*
X129660000Y-70090000D01*
X129660000Y-73840000D02*
X126560000Y-73840000D01*
X129660000Y-73840000D02*
X129660000Y-70090000D01*
X73000000Y-35740000D02*
X74460000Y-35740000D01*
X73000000Y-38700000D02*
X73000000Y-35740000D01*
X74460000Y-35740000D02*
X74460000Y-38700000D01*
X74460000Y-38700000D02*
X73000000Y-38700000D01*
X62790000Y-11927500D02*
X64250000Y-11927500D01*
X62790000Y-14887500D02*
X62790000Y-11927500D01*
X64250000Y-11927500D02*
X64250000Y-14887500D01*
X64250000Y-14887500D02*
X62790000Y-14887500D01*
X113963000Y-79407000D02*
X116923000Y-79407000D01*
X113963000Y-80867000D02*
X113963000Y-79407000D01*
X116923000Y-79407000D02*
X116923000Y-80867000D01*
X116923000Y-80867000D02*
X113963000Y-80867000D01*
X76130000Y-89990000D02*
X77590000Y-89990000D01*
X76130000Y-92950000D02*
X76130000Y-89990000D01*
X77590000Y-89990000D02*
X77590000Y-92950000D01*
X77590000Y-92950000D02*
X76130000Y-92950000D01*
X22215000Y-45635000D02*
X23675000Y-45635000D01*
X22215000Y-48595000D02*
X22215000Y-45635000D01*
X23675000Y-45635000D02*
X23675000Y-48595000D01*
X23675000Y-48595000D02*
X22215000Y-48595000D01*
X117817500Y-7440000D02*
X119277500Y-7440000D01*
X117817500Y-10400000D02*
X117817500Y-7440000D01*
X119277500Y-7440000D02*
X119277500Y-10400000D01*
X119277500Y-10400000D02*
X117817500Y-10400000D01*
X46340000Y-35960000D02*
X49300000Y-35960000D01*
X46340000Y-37420000D02*
X46340000Y-35960000D01*
X49300000Y-35960000D02*
X49300000Y-37420000D01*
X49300000Y-37420000D02*
X46340000Y-37420000D01*
X56130000Y-47110000D02*
X57590000Y-47110000D01*
X56130000Y-50070000D02*
X56130000Y-47110000D01*
X57590000Y-47110000D02*
X57590000Y-50070000D01*
X57590000Y-50070000D02*
X56130000Y-50070000D01*
X139960000Y-61630000D02*
X142920000Y-61630000D01*
X139960000Y-63090000D02*
X139960000Y-61630000D01*
X142920000Y-61630000D02*
X142920000Y-63090000D01*
X142920000Y-63090000D02*
X139960000Y-63090000D01*
X79810000Y-89990000D02*
X81270000Y-89990000D01*
X79810000Y-92950000D02*
X79810000Y-89990000D01*
X81270000Y-89990000D02*
X81270000Y-92950000D01*
X81270000Y-92950000D02*
X79810000Y-92950000D01*
X31446000Y-7602000D02*
G75*
G02*
X25346000Y-7602000I-3050000J0D01*
G01*
X25346000Y-7602000D02*
G75*
G02*
X31446000Y-7602000I3050000J0D01*
G01*
X17950000Y-81960000D02*
X19410000Y-81960000D01*
X17950000Y-84920000D02*
X17950000Y-81960000D01*
X19410000Y-81960000D02*
X19410000Y-84920000D01*
X19410000Y-84920000D02*
X17950000Y-84920000D01*
X70960000Y-35750000D02*
X72420000Y-35750000D01*
X70960000Y-38710000D02*
X70960000Y-35750000D01*
X72420000Y-35750000D02*
X72420000Y-38710000D01*
X72420000Y-38710000D02*
X70960000Y-38710000D01*
X26170000Y-57970000D02*
X29870000Y-57970000D01*
X26170000Y-59870000D02*
X26170000Y-57970000D01*
X29870000Y-57970000D02*
X29870000Y-59870000D01*
X29870000Y-59870000D02*
X26170000Y-59870000D01*
X154120000Y-64320000D02*
X157080000Y-64320000D01*
X154120000Y-65780000D02*
X154120000Y-64320000D01*
X157080000Y-64320000D02*
X157080000Y-65780000D01*
X157080000Y-65780000D02*
X154120000Y-65780000D01*
X27385000Y-45005000D02*
X30345000Y-45005000D01*
X27385000Y-46465000D02*
X27385000Y-45005000D01*
X30345000Y-45005000D02*
X30345000Y-46465000D01*
X30345000Y-46465000D02*
X27385000Y-46465000D01*
X91370000Y-80560000D02*
X91370000Y-84660000D01*
X91370000Y-84660000D02*
X94770000Y-84660000D01*
X94770000Y-80560000D02*
X91370000Y-80560000D01*
X94770000Y-84660000D02*
X94770000Y-80560000D01*
X62565000Y-41595000D02*
X65525000Y-41595000D01*
X62565000Y-43055000D02*
X62565000Y-41595000D01*
X65525000Y-41595000D02*
X65525000Y-43055000D01*
X65525000Y-43055000D02*
X62565000Y-43055000D01*
X64000000Y-68200000D02*
X65460000Y-68200000D01*
X64000000Y-71160000D02*
X64000000Y-68200000D01*
X65460000Y-68200000D02*
X65460000Y-71160000D01*
X65460000Y-71160000D02*
X64000000Y-71160000D01*
X123320000Y-56730000D02*
X124780000Y-56730000D01*
X123320000Y-59690000D02*
X123320000Y-56730000D01*
X124780000Y-56730000D02*
X124780000Y-59690000D01*
X124780000Y-59690000D02*
X123320000Y-59690000D01*
X16305000Y-22110000D02*
X17765000Y-22110000D01*
X16305000Y-25070000D02*
X16305000Y-22110000D01*
X17765000Y-22110000D02*
X17765000Y-25070000D01*
X17765000Y-25070000D02*
X16305000Y-25070000D01*
X61450000Y-87630000D02*
X64410000Y-87630000D01*
X61450000Y-89090000D02*
X61450000Y-87630000D01*
X64410000Y-87630000D02*
X64410000Y-89090000D01*
X64410000Y-89090000D02*
X61450000Y-89090000D01*
X72600000Y-89990000D02*
X74060000Y-89990000D01*
X72600000Y-92950000D02*
X72600000Y-89990000D01*
X74060000Y-89990000D02*
X74060000Y-92950000D01*
X74060000Y-92950000D02*
X72600000Y-92950000D01*
X82580000Y-17070000D02*
X84040000Y-17070000D01*
X82580000Y-20030000D02*
X82580000Y-17070000D01*
X84040000Y-17070000D02*
X84040000Y-20030000D01*
X84040000Y-20030000D02*
X82580000Y-20030000D01*
X146400000Y-94630000D02*
X149360000Y-94630000D01*
X146400000Y-96090000D02*
X146400000Y-94630000D01*
X149360000Y-94630000D02*
X149360000Y-96090000D01*
X149360000Y-96090000D02*
X146400000Y-96090000D01*
X6156000Y-94412000D02*
G75*
G02*
X956000Y-94412000I-2600000J0D01*
G01*
X956000Y-94412000D02*
G75*
G02*
X6156000Y-94412000I2600000J0D01*
G01*
X51180000Y-94900000D02*
X54140000Y-94900000D01*
X51180000Y-96360000D02*
X51180000Y-94900000D01*
X54140000Y-94900000D02*
X54140000Y-96360000D01*
X54140000Y-96360000D02*
X51180000Y-96360000D01*
X45645000Y-9860000D02*
X48605000Y-9860000D01*
X45645000Y-11320000D02*
X45645000Y-9860000D01*
X48605000Y-9860000D02*
X48605000Y-11320000D01*
X48605000Y-11320000D02*
X45645000Y-11320000D01*
X93420000Y-26575000D02*
X93420000Y-31975000D01*
X93420000Y-31975000D02*
X100820000Y-31975000D01*
X100820000Y-26575000D02*
X93420000Y-26575000D01*
X100820000Y-31975000D02*
X100820000Y-26575000D01*
X69680000Y-88210000D02*
X71140000Y-88210000D01*
X69680000Y-91170000D02*
X69680000Y-88210000D01*
X71140000Y-88210000D02*
X71140000Y-91170000D01*
X71140000Y-91170000D02*
X69680000Y-91170000D01*
X52275000Y-12560000D02*
X55975000Y-12560000D01*
X52275000Y-14460000D02*
X52275000Y-12560000D01*
X55975000Y-12560000D02*
X55975000Y-14460000D01*
X55975000Y-14460000D02*
X52275000Y-14460000D01*
X50260000Y-44990000D02*
X53960000Y-44990000D01*
X50260000Y-46890000D02*
X50260000Y-44990000D01*
X53960000Y-44990000D02*
X53960000Y-46890000D01*
X53960000Y-46890000D02*
X50260000Y-46890000D01*
X32375000Y-49685000D02*
X35335000Y-49685000D01*
X32375000Y-51145000D02*
X32375000Y-49685000D01*
X35335000Y-49685000D02*
X35335000Y-51145000D01*
X35335000Y-51145000D02*
X32375000Y-51145000D01*
X11315000Y-73530000D02*
X14065000Y-73530000D01*
X11315000Y-77030000D02*
X11315000Y-73530000D01*
X14065000Y-73530000D02*
X14065000Y-77030000D01*
X14065000Y-77030000D02*
X11315000Y-77030000D01*
X10670000Y-69420000D02*
X12130000Y-69420000D01*
X10670000Y-72380000D02*
X10670000Y-69420000D01*
X12130000Y-69420000D02*
X12130000Y-72380000D01*
X12130000Y-72380000D02*
X10670000Y-72380000D01*
X134350000Y-48455000D02*
X134350000Y-52555000D01*
X134350000Y-52555000D02*
X137750000Y-52555000D01*
X137750000Y-48455000D02*
X134350000Y-48455000D01*
X137750000Y-52555000D02*
X137750000Y-48455000D01*
X46330000Y-33870000D02*
X49290000Y-33870000D01*
X46330000Y-35330000D02*
X46330000Y-33870000D01*
X49290000Y-33870000D02*
X49290000Y-35330000D01*
X49290000Y-35330000D02*
X46330000Y-35330000D01*
X45645000Y-26740000D02*
X48605000Y-26740000D01*
X45645000Y-28200000D02*
X45645000Y-26740000D01*
X48605000Y-26740000D02*
X48605000Y-28200000D01*
X48605000Y-28200000D02*
X45645000Y-28200000D01*
X8300000Y-76025000D02*
X9760000Y-76025000D01*
X8300000Y-78985000D02*
X8300000Y-76025000D01*
X9760000Y-76025000D02*
X9760000Y-78985000D01*
X9760000Y-78985000D02*
X8300000Y-78985000D01*
X110020000Y-46587500D02*
X110020000Y-53587500D01*
X110020000Y-53587500D02*
X121120000Y-53587500D01*
X121120000Y-46587500D02*
X110020000Y-46587500D01*
X121120000Y-53587500D02*
X121120000Y-46587500D01*
X92240000Y-46557500D02*
X92240000Y-53557500D01*
X92240000Y-53557500D02*
X103340000Y-53557500D01*
X103340000Y-46557500D02*
X92240000Y-46557500D01*
X103340000Y-53557500D02*
X103340000Y-46557500D01*
X17775000Y-46225000D02*
X19675000Y-46225000D01*
X17775000Y-49925000D02*
X17775000Y-46225000D01*
X19675000Y-46225000D02*
X19675000Y-49925000D01*
X19675000Y-49925000D02*
X17775000Y-49925000D01*
X83100000Y-70380000D02*
X84560000Y-70380000D01*
X83100000Y-73340000D02*
X83100000Y-70380000D01*
X84560000Y-70380000D02*
X84560000Y-73340000D01*
X84560000Y-73340000D02*
X83100000Y-73340000D01*
X66660000Y-23500000D02*
X68120000Y-23500000D01*
X66660000Y-26460000D02*
X66660000Y-23500000D01*
X68120000Y-23500000D02*
X68120000Y-26460000D01*
X68120000Y-26460000D02*
X66660000Y-26460000D01*
X114103000Y-81439000D02*
X117063000Y-81439000D01*
X114103000Y-82899000D02*
X114103000Y-81439000D01*
X117063000Y-81439000D02*
X117063000Y-82899000D01*
X117063000Y-82899000D02*
X114103000Y-82899000D01*
X76490000Y-14800000D02*
X77950000Y-14800000D01*
X76490000Y-17760000D02*
X76490000Y-14800000D01*
X77950000Y-14800000D02*
X77950000Y-17760000D01*
X77950000Y-17760000D02*
X76490000Y-17760000D01*
X112492500Y-16477500D02*
X113952500Y-16477500D01*
X112492500Y-19437500D02*
X112492500Y-16477500D01*
X113952500Y-16477500D02*
X113952500Y-19437500D01*
X113952500Y-19437500D02*
X112492500Y-19437500D01*
X88130000Y-11800000D02*
X91090000Y-11800000D01*
X88130000Y-13260000D02*
X88130000Y-11800000D01*
X91090000Y-11800000D02*
X91090000Y-13260000D01*
X91090000Y-13260000D02*
X88130000Y-13260000D01*
X105920000Y-26130000D02*
X107380000Y-26130000D01*
X105920000Y-29090000D02*
X105920000Y-26130000D01*
X107380000Y-26130000D02*
X107380000Y-29090000D01*
X107380000Y-29090000D02*
X105920000Y-29090000D01*
X160512000Y-96774000D02*
G75*
G02*
X158512000Y-96774000I-1000000J0D01*
G01*
X158512000Y-96774000D02*
G75*
G02*
X160512000Y-96774000I1000000J0D01*
G01*
X116170000Y-24260000D02*
X117630000Y-24260000D01*
X116170000Y-27220000D02*
X116170000Y-24260000D01*
X117630000Y-24260000D02*
X117630000Y-27220000D01*
X117630000Y-27220000D02*
X116170000Y-27220000D01*
X44525000Y-58025000D02*
X48225000Y-58025000D01*
X44525000Y-59925000D02*
X44525000Y-58025000D01*
X48225000Y-58025000D02*
X48225000Y-59925000D01*
X48225000Y-59925000D02*
X44525000Y-59925000D01*
X113836000Y-76232000D02*
X116796000Y-76232000D01*
X113836000Y-77692000D02*
X113836000Y-76232000D01*
X116796000Y-76232000D02*
X116796000Y-77692000D01*
X116796000Y-77692000D02*
X113836000Y-77692000D01*
X51829000Y-79670000D02*
X53289000Y-79670000D01*
X51829000Y-82630000D02*
X51829000Y-79670000D01*
X53289000Y-79670000D02*
X53289000Y-82630000D01*
X53289000Y-82630000D02*
X51829000Y-82630000D01*
X141130000Y-3970000D02*
X144490000Y-3970000D01*
X141130000Y-5870000D02*
X141130000Y-3970000D01*
X144490000Y-3970000D02*
X144490000Y-5870000D01*
X144490000Y-5870000D02*
X141130000Y-5870000D01*
X69000000Y-91960000D02*
X71960000Y-91960000D01*
X69000000Y-93420000D02*
X69000000Y-91960000D01*
X71960000Y-91960000D02*
X71960000Y-93420000D01*
X71960000Y-93420000D02*
X69000000Y-93420000D01*
X72600000Y-25630000D02*
X74060000Y-25630000D01*
X72600000Y-28590000D02*
X72600000Y-25630000D01*
X74060000Y-25630000D02*
X74060000Y-28590000D01*
X74060000Y-28590000D02*
X72600000Y-28590000D01*
X126536000Y-78899000D02*
X129496000Y-78899000D01*
X126536000Y-80359000D02*
X126536000Y-78899000D01*
X129496000Y-78899000D02*
X129496000Y-80359000D01*
X129496000Y-80359000D02*
X126536000Y-80359000D01*
X63297500Y-92210000D02*
X64757500Y-92210000D01*
X63297500Y-95170000D02*
X63297500Y-92210000D01*
X64757500Y-92210000D02*
X64757500Y-95170000D01*
X64757500Y-95170000D02*
X63297500Y-95170000D01*
X96330000Y-21840000D02*
X99290000Y-21840000D01*
X96330000Y-23300000D02*
X96330000Y-21840000D01*
X99290000Y-21840000D02*
X99290000Y-23300000D01*
X99290000Y-23300000D02*
X96330000Y-23300000D01*
X141120000Y-8060000D02*
X144480000Y-8060000D01*
X141120000Y-9960000D02*
X141120000Y-8060000D01*
X144480000Y-8060000D02*
X144480000Y-9960000D01*
X144480000Y-9960000D02*
X141120000Y-9960000D01*
X130720000Y-48720000D02*
X133680000Y-48720000D01*
X130720000Y-50180000D02*
X130720000Y-48720000D01*
X133680000Y-48720000D02*
X133680000Y-50180000D01*
X133680000Y-50180000D02*
X130720000Y-50180000D01*
X130650000Y-54510000D02*
X133610000Y-54510000D01*
X130650000Y-55970000D02*
X130650000Y-54510000D01*
X133610000Y-54510000D02*
X133610000Y-55970000D01*
X133610000Y-55970000D02*
X130650000Y-55970000D01*
X53480000Y-79670000D02*
X54940000Y-79670000D01*
X53480000Y-82630000D02*
X53480000Y-79670000D01*
X54940000Y-79670000D02*
X54940000Y-82630000D01*
X54940000Y-82630000D02*
X53480000Y-82630000D01*
X20375000Y-45625000D02*
X21835000Y-45625000D01*
X20375000Y-48585000D02*
X20375000Y-45625000D01*
X21835000Y-45625000D02*
X21835000Y-48585000D01*
X21835000Y-48585000D02*
X20375000Y-48585000D01*
X116035000Y-7420000D02*
X117495000Y-7420000D01*
X116035000Y-10380000D02*
X116035000Y-7420000D01*
X117495000Y-7420000D02*
X117495000Y-10380000D01*
X117495000Y-10380000D02*
X116035000Y-10380000D01*
X96600000Y-85830000D02*
X99560000Y-85830000D01*
X96600000Y-87290000D02*
X96600000Y-85830000D01*
X99560000Y-85830000D02*
X99560000Y-87290000D01*
X99560000Y-87290000D02*
X96600000Y-87290000D01*
X49705000Y-47825000D02*
X52665000Y-47825000D01*
X49705000Y-49285000D02*
X49705000Y-47825000D01*
X52665000Y-47825000D02*
X52665000Y-49285000D01*
X52665000Y-49285000D02*
X49705000Y-49285000D01*
X28210000Y-14730000D02*
X31910000Y-14730000D01*
X28210000Y-16630000D02*
X28210000Y-14730000D01*
X31910000Y-14730000D02*
X31910000Y-16630000D01*
X31910000Y-16630000D02*
X28210000Y-16630000D01*
X32945000Y-55225000D02*
X36645000Y-55225000D01*
X32945000Y-57125000D02*
X32945000Y-55225000D01*
X36645000Y-55225000D02*
X36645000Y-57125000D01*
X36645000Y-57125000D02*
X32945000Y-57125000D01*
X6737000Y-91590000D02*
X11297000Y-91590000D01*
X6737000Y-93830000D02*
X6737000Y-91590000D01*
X11297000Y-91590000D02*
X11297000Y-93830000D01*
X11297000Y-93830000D02*
X6737000Y-93830000D01*
X26235000Y-47045000D02*
X26235000Y-54445000D01*
X26235000Y-54445000D02*
X31635000Y-54445000D01*
X31635000Y-47045000D02*
X26235000Y-47045000D01*
X31635000Y-54445000D02*
X31635000Y-47045000D01*
X140410000Y-63740000D02*
X142710000Y-63740000D01*
X140410000Y-68340000D02*
X140410000Y-63740000D01*
X142710000Y-63740000D02*
X142710000Y-68340000D01*
X142710000Y-68340000D02*
X140410000Y-68340000D01*
X121500000Y-50130000D02*
X122960000Y-50130000D01*
X121500000Y-53090000D02*
X121500000Y-50130000D01*
X122960000Y-50130000D02*
X122960000Y-53090000D01*
X122960000Y-53090000D02*
X121500000Y-53090000D01*
X100366000Y-85295000D02*
X102326000Y-85295000D01*
X100366000Y-88695000D02*
X100366000Y-85295000D01*
X102326000Y-85295000D02*
X102326000Y-88695000D01*
X102326000Y-88695000D02*
X100366000Y-88695000D01*
X14700000Y-73660000D02*
X16160000Y-73660000D01*
X14700000Y-76620000D02*
X14700000Y-73660000D01*
X16160000Y-73660000D02*
X16160000Y-76620000D01*
X16160000Y-76620000D02*
X14700000Y-76620000D01*
X82580000Y-13750000D02*
X84040000Y-13750000D01*
X82580000Y-16710000D02*
X82580000Y-13750000D01*
X84040000Y-13750000D02*
X84040000Y-16710000D01*
X84040000Y-16710000D02*
X82580000Y-16710000D01*
X20285000Y-32430000D02*
X24885000Y-32430000D01*
X20285000Y-34730000D02*
X20285000Y-32430000D01*
X24885000Y-32430000D02*
X24885000Y-34730000D01*
X24885000Y-34730000D02*
X20285000Y-34730000D01*
X34205000Y-51545000D02*
X35665000Y-51545000D01*
X34205000Y-54505000D02*
X34205000Y-51545000D01*
X35665000Y-51545000D02*
X35665000Y-54505000D01*
X35665000Y-54505000D02*
X34205000Y-54505000D01*
X105475000Y-50092500D02*
X106935000Y-50092500D01*
X105475000Y-53052500D02*
X105475000Y-50092500D01*
X106935000Y-50092500D02*
X106935000Y-53052500D01*
X106935000Y-53052500D02*
X105475000Y-53052500D01*
X91490000Y-78670000D02*
X94450000Y-78670000D01*
X91490000Y-80130000D02*
X91490000Y-78670000D01*
X94450000Y-78670000D02*
X94450000Y-80130000D01*
X94450000Y-80130000D02*
X91490000Y-80130000D01*
X13300000Y-69380000D02*
X14760000Y-69380000D01*
X13300000Y-72340000D02*
X13300000Y-69380000D01*
X14760000Y-69380000D02*
X14760000Y-72340000D01*
X14760000Y-72340000D02*
X13300000Y-72340000D01*
X36980000Y-38060000D02*
X36980000Y-39960000D01*
X36980000Y-38060000D02*
X40180000Y-38060000D01*
X36980000Y-39960000D02*
X40180000Y-39960000D01*
X40180000Y-38060000D02*
X40180000Y-39960000D01*
X87120000Y-25740000D02*
X89020000Y-25740000D01*
X87120000Y-29440000D02*
X87120000Y-25740000D01*
X89020000Y-25740000D02*
X89020000Y-29440000D01*
X89020000Y-29440000D02*
X87120000Y-29440000D01*
X111030000Y-82213000D02*
X112490000Y-82213000D01*
X111030000Y-85173000D02*
X111030000Y-82213000D01*
X112490000Y-82213000D02*
X112490000Y-85173000D01*
X112490000Y-85173000D02*
X111030000Y-85173000D01*
X58840000Y-51650000D02*
X61800000Y-51650000D01*
X58840000Y-53110000D02*
X58840000Y-51650000D01*
X61800000Y-51650000D02*
X61800000Y-53110000D01*
X61800000Y-53110000D02*
X58840000Y-53110000D01*
X61446000Y-7602000D02*
G75*
G02*
X55346000Y-7602000I-3050000J0D01*
G01*
X55346000Y-7602000D02*
G75*
G02*
X61446000Y-7602000I3050000J0D01*
G01*
X15430000Y-32440000D02*
X15430000Y-35640000D01*
X17330000Y-32440000D02*
X15430000Y-32440000D01*
X17330000Y-32440000D02*
X17330000Y-35640000D01*
X17330000Y-35640000D02*
X15430000Y-35640000D01*
X75380000Y-29090000D02*
X78340000Y-29090000D01*
X75380000Y-30550000D02*
X75380000Y-29090000D01*
X78340000Y-29090000D02*
X78340000Y-30550000D01*
X78340000Y-30550000D02*
X75380000Y-30550000D01*
X103685000Y-46512500D02*
X105145000Y-46512500D01*
X103685000Y-49472500D02*
X103685000Y-46512500D01*
X105145000Y-46512500D02*
X105145000Y-49472500D01*
X105145000Y-49472500D02*
X103685000Y-49472500D01*
X25810000Y-33080000D02*
X27710000Y-33080000D01*
X25810000Y-36780000D02*
X25810000Y-33080000D01*
X27710000Y-33080000D02*
X27710000Y-36780000D01*
X27710000Y-36780000D02*
X25810000Y-36780000D01*
X20935000Y-30020000D02*
X24235000Y-30020000D01*
X20935000Y-31480000D02*
X20935000Y-30020000D01*
X24235000Y-30020000D02*
X24235000Y-31480000D01*
X24235000Y-31480000D02*
X20935000Y-31480000D01*
X118420000Y-85240000D02*
X121380000Y-85240000D01*
X118420000Y-86700000D02*
X118420000Y-85240000D01*
X121380000Y-85240000D02*
X121380000Y-86700000D01*
X121380000Y-86700000D02*
X118420000Y-86700000D01*
X125940000Y-7480000D02*
X127400000Y-7480000D01*
X125940000Y-10440000D02*
X125940000Y-7480000D01*
X127400000Y-7480000D02*
X127400000Y-10440000D01*
X127400000Y-10440000D02*
X125940000Y-10440000D01*
X26340000Y-83950000D02*
X30940000Y-83950000D01*
X26340000Y-86250000D02*
X26340000Y-83950000D01*
X30940000Y-83950000D02*
X30940000Y-86250000D01*
X30940000Y-86250000D02*
X26340000Y-86250000D01*
X147700000Y-21965000D02*
X147700000Y-25765000D01*
X147700000Y-25765000D02*
X151900000Y-25765000D01*
X151900000Y-21965000D02*
X147700000Y-21965000D01*
X151900000Y-25765000D02*
X151900000Y-21965000D01*
X74350000Y-89990000D02*
X75810000Y-89990000D01*
X74350000Y-92950000D02*
X74350000Y-89990000D01*
X75810000Y-89990000D02*
X75810000Y-92950000D01*
X75810000Y-92950000D02*
X74350000Y-92950000D01*
X83830000Y-8640000D02*
X85290000Y-8640000D01*
X83830000Y-11600000D02*
X83830000Y-8640000D01*
X85290000Y-8640000D02*
X85290000Y-11600000D01*
X85290000Y-11600000D02*
X83830000Y-11600000D01*
X141140000Y-68810000D02*
X141140000Y-72560000D01*
X141140000Y-68810000D02*
X144240000Y-68810000D01*
X144240000Y-72560000D02*
X141140000Y-72560000D01*
X144240000Y-72560000D02*
X144240000Y-68810000D01*
X49725000Y-51575000D02*
X51185000Y-51575000D01*
X49725000Y-54535000D02*
X49725000Y-51575000D01*
X51185000Y-51575000D02*
X51185000Y-54535000D01*
X51185000Y-54535000D02*
X49725000Y-54535000D01*
X114252500Y-16482500D02*
X115712500Y-16482500D01*
X114252500Y-19442500D02*
X114252500Y-16482500D01*
X115712500Y-16482500D02*
X115712500Y-19442500D01*
X115712500Y-19442500D02*
X114252500Y-19442500D01*
X121470000Y-56730000D02*
X122930000Y-56730000D01*
X121470000Y-59690000D02*
X121470000Y-56730000D01*
X122930000Y-56730000D02*
X122930000Y-59690000D01*
X122930000Y-59690000D02*
X121470000Y-59690000D01*
X126536000Y-76867000D02*
X129496000Y-76867000D01*
X126536000Y-78327000D02*
X126536000Y-76867000D01*
X129496000Y-76867000D02*
X129496000Y-78327000D01*
X129496000Y-78327000D02*
X126536000Y-78327000D01*
X38805000Y-42205000D02*
X42505000Y-42205000D01*
X38805000Y-44105000D02*
X38805000Y-42205000D01*
X42505000Y-42205000D02*
X42505000Y-44105000D01*
X42505000Y-44105000D02*
X38805000Y-44105000D01*
X88130000Y-13590000D02*
X91090000Y-13590000D01*
X88130000Y-15050000D02*
X88130000Y-13590000D01*
X91090000Y-13590000D02*
X91090000Y-15050000D01*
X91090000Y-15050000D02*
X88130000Y-15050000D01*
X76759000Y-52263000D02*
X76759000Y-54163000D01*
X76759000Y-52263000D02*
X79959000Y-52263000D01*
X76759000Y-54163000D02*
X79959000Y-54163000D01*
X79959000Y-52263000D02*
X79959000Y-54163000D01*
X40130000Y-32090000D02*
X42030000Y-32090000D01*
X40130000Y-35790000D02*
X40130000Y-32090000D01*
X42030000Y-32090000D02*
X42030000Y-35790000D01*
X42030000Y-35790000D02*
X40130000Y-35790000D01*
X32345000Y-47815000D02*
X35305000Y-47815000D01*
X32345000Y-49275000D02*
X32345000Y-47815000D01*
X35305000Y-47815000D02*
X35305000Y-49275000D01*
X35305000Y-49275000D02*
X32345000Y-49275000D01*
X110020000Y-56777500D02*
X110020000Y-63777500D01*
X110020000Y-63777500D02*
X121120000Y-63777500D01*
X121120000Y-56777500D02*
X110020000Y-56777500D01*
X121120000Y-63777500D02*
X121120000Y-56777500D01*
X99360000Y-18080000D02*
X102320000Y-18080000D01*
X99360000Y-19540000D02*
X99360000Y-18080000D01*
X102320000Y-18080000D02*
X102320000Y-19540000D01*
X102320000Y-19540000D02*
X99360000Y-19540000D01*
X32800000Y-6590000D02*
X37360000Y-6590000D01*
X32800000Y-8830000D02*
X32800000Y-6590000D01*
X37360000Y-6590000D02*
X37360000Y-8830000D01*
X37360000Y-8830000D02*
X32800000Y-8830000D01*
X40150000Y-26300000D02*
X42050000Y-26300000D01*
X40150000Y-30000000D02*
X40150000Y-26300000D01*
X42050000Y-26300000D02*
X42050000Y-30000000D01*
X42050000Y-30000000D02*
X40150000Y-30000000D01*
X150750000Y-42630000D02*
X153710000Y-42630000D01*
X150750000Y-44090000D02*
X150750000Y-42630000D01*
X153710000Y-42630000D02*
X153710000Y-44090000D01*
X153710000Y-44090000D02*
X150750000Y-44090000D01*
X25800000Y-18310000D02*
X27700000Y-18310000D01*
X25800000Y-22010000D02*
X25800000Y-18310000D01*
X27700000Y-18310000D02*
X27700000Y-22010000D01*
X27700000Y-22010000D02*
X25800000Y-22010000D01*
X-6500000Y-34300000D02*
X-6500000Y-25700000D01*
X-6500000Y-34300000D02*
X9800000Y-34300000D01*
X9800000Y-25700000D02*
X-6500000Y-25700000D01*
X9800000Y-25700000D02*
X9800000Y-34300000D01*
X45080000Y-13862500D02*
X45080000Y-18122500D01*
X45080000Y-18122500D02*
X49340000Y-18122500D01*
X49340000Y-13862500D02*
X45080000Y-13862500D01*
X49340000Y-18122500D02*
X49340000Y-13862500D01*
X28220000Y-30630000D02*
X31920000Y-30630000D01*
X28220000Y-32530000D02*
X28220000Y-30630000D01*
X31920000Y-30630000D02*
X31920000Y-32530000D01*
X31920000Y-32530000D02*
X28220000Y-32530000D01*
X159553000Y-6003000D02*
G75*
G02*
X153453000Y-6003000I-3050000J0D01*
G01*
X153453000Y-6003000D02*
G75*
G02*
X159553000Y-6003000I3050000J0D01*
G01*
X94520000Y-18240000D02*
X95980000Y-18240000D01*
X94520000Y-21200000D02*
X94520000Y-18240000D01*
X95980000Y-18240000D02*
X95980000Y-21200000D01*
X95980000Y-21200000D02*
X94520000Y-21200000D01*
D11*
X-2180000Y-69615000D02*
X6920000Y-69615000D01*
X-2180000Y-80315000D02*
X-2180000Y-69615000D01*
X6920000Y-69615000D02*
X6920000Y-80315000D01*
X6920000Y-80315000D02*
X-2180000Y-80315000D01*
D10*
X154157500Y-69410000D02*
X155617500Y-69410000D01*
X154157500Y-72370000D02*
X154157500Y-69410000D01*
X155617500Y-69410000D02*
X155617500Y-72370000D01*
X155617500Y-72370000D02*
X154157500Y-72370000D01*
X126905000Y-82213000D02*
X128365000Y-82213000D01*
X126905000Y-85173000D02*
X126905000Y-82213000D01*
X128365000Y-82213000D02*
X128365000Y-85173000D01*
X128365000Y-85173000D02*
X126905000Y-85173000D01*
X74530000Y-11300000D02*
X75990000Y-11300000D01*
X74530000Y-14260000D02*
X74530000Y-11300000D01*
X75990000Y-11300000D02*
X75990000Y-14260000D01*
X75990000Y-14260000D02*
X74530000Y-14260000D01*
X80730000Y-13750000D02*
X82190000Y-13750000D01*
X80730000Y-16710000D02*
X80730000Y-13750000D01*
X82190000Y-13750000D02*
X82190000Y-16710000D01*
X82190000Y-16710000D02*
X80730000Y-16710000D01*
X130710000Y-50650000D02*
X133670000Y-50650000D01*
X130710000Y-52110000D02*
X130710000Y-50650000D01*
X133670000Y-50650000D02*
X133670000Y-52110000D01*
X133670000Y-52110000D02*
X130710000Y-52110000D01*
X81105000Y-84380000D02*
X82565000Y-84380000D01*
X81105000Y-87340000D02*
X81105000Y-84380000D01*
X82565000Y-84380000D02*
X82565000Y-87340000D01*
X82565000Y-87340000D02*
X81105000Y-87340000D01*
X96730000Y-16435000D02*
X98630000Y-16435000D01*
X96730000Y-20135000D02*
X96730000Y-16435000D01*
X98630000Y-16435000D02*
X98630000Y-20135000D01*
X98630000Y-20135000D02*
X96730000Y-20135000D01*
X17745000Y-52965000D02*
X19645000Y-52965000D01*
X17745000Y-56665000D02*
X17745000Y-52965000D01*
X19645000Y-52965000D02*
X19645000Y-56665000D01*
X19645000Y-56665000D02*
X17745000Y-56665000D01*
X57770000Y-55710000D02*
X66570000Y-55710000D01*
X57770000Y-60510000D02*
X57770000Y-55710000D01*
X66570000Y-55710000D02*
X66570000Y-60510000D01*
X66570000Y-60510000D02*
X57770000Y-60510000D01*
X157430000Y-66180000D02*
X160390000Y-66180000D01*
X157430000Y-67640000D02*
X157430000Y-66180000D01*
X160390000Y-66180000D02*
X160390000Y-67640000D01*
X160390000Y-67640000D02*
X157430000Y-67640000D01*
X13770000Y-15500000D02*
X15670000Y-15500000D01*
X13770000Y-19200000D02*
X13770000Y-15500000D01*
X15670000Y-15500000D02*
X15670000Y-19200000D01*
X15670000Y-19200000D02*
X13770000Y-19200000D01*
X83055000Y-84380000D02*
X84515000Y-84380000D01*
X83055000Y-87340000D02*
X83055000Y-84380000D01*
X84515000Y-84380000D02*
X84515000Y-87340000D01*
X84515000Y-87340000D02*
X83055000Y-87340000D01*
X19463000Y-81940000D02*
X20923000Y-81940000D01*
X19463000Y-84900000D02*
X19463000Y-81940000D01*
X20923000Y-81940000D02*
X20923000Y-84900000D01*
X20923000Y-84900000D02*
X19463000Y-84900000D01*
X103630000Y-74060000D02*
X106590000Y-74060000D01*
X103630000Y-75520000D02*
X103630000Y-74060000D01*
X106590000Y-74060000D02*
X106590000Y-75520000D01*
X106590000Y-75520000D02*
X103630000Y-75520000D01*
X131190000Y-34420000D02*
X135790000Y-34420000D01*
X131190000Y-36720000D02*
X131190000Y-34420000D01*
X135790000Y-34420000D02*
X135790000Y-36720000D01*
X135790000Y-36720000D02*
X131190000Y-36720000D01*
X37980000Y-6760000D02*
X37980000Y-8660000D01*
X37980000Y-6760000D02*
X41180000Y-6760000D01*
X37980000Y-8660000D02*
X41180000Y-8660000D01*
X41180000Y-6760000D02*
X41180000Y-8660000D01*
X97707000Y-80930000D02*
X100667000Y-80930000D01*
X97707000Y-82390000D02*
X97707000Y-80930000D01*
X100667000Y-80930000D02*
X100667000Y-82390000D01*
X100667000Y-82390000D02*
X97707000Y-82390000D01*
X59100000Y-31450000D02*
X60560000Y-31450000D01*
X59100000Y-34410000D02*
X59100000Y-31450000D01*
X60560000Y-31450000D02*
X60560000Y-34410000D01*
X60560000Y-34410000D02*
X59100000Y-34410000D01*
X85450000Y-23300000D02*
X88410000Y-23300000D01*
X85450000Y-24760000D02*
X85450000Y-23300000D01*
X88410000Y-23300000D02*
X88410000Y-24760000D01*
X88410000Y-24760000D02*
X85450000Y-24760000D01*
X62575000Y-43465000D02*
X65535000Y-43465000D01*
X62575000Y-44925000D02*
X62575000Y-43465000D01*
X65535000Y-43465000D02*
X65535000Y-44925000D01*
X65535000Y-44925000D02*
X62575000Y-44925000D01*
X125110000Y-85290000D02*
X126570000Y-85290000D01*
X125110000Y-88250000D02*
X125110000Y-85290000D01*
X126570000Y-85290000D02*
X126570000Y-88250000D01*
X126570000Y-88250000D02*
X125110000Y-88250000D01*
X43555000Y-55135000D02*
X46515000Y-55135000D01*
X43555000Y-56595000D02*
X43555000Y-55135000D01*
X46515000Y-55135000D02*
X46515000Y-56595000D01*
X46515000Y-56595000D02*
X43555000Y-56595000D01*
X65940000Y-88220000D02*
X67400000Y-88220000D01*
X65940000Y-91180000D02*
X65940000Y-88220000D01*
X67400000Y-88220000D02*
X67400000Y-91180000D01*
X67400000Y-91180000D02*
X65940000Y-91180000D01*
X32975000Y-45255000D02*
X36675000Y-45255000D01*
X32975000Y-47155000D02*
X32975000Y-45255000D01*
X36675000Y-45255000D02*
X36675000Y-47155000D01*
X36675000Y-47155000D02*
X32975000Y-47155000D01*
X94570000Y-23650000D02*
X98270000Y-23650000D01*
X94570000Y-25550000D02*
X94570000Y-23650000D01*
X98270000Y-23650000D02*
X98270000Y-25550000D01*
X98270000Y-25550000D02*
X94570000Y-25550000D01*
X14610000Y-26540000D02*
X18310000Y-26540000D01*
X14610000Y-28440000D02*
X14610000Y-26540000D01*
X18310000Y-26540000D02*
X18310000Y-28440000D01*
X18310000Y-28440000D02*
X14610000Y-28440000D01*
X102660000Y-85249000D02*
X105620000Y-85249000D01*
X102660000Y-86709000D02*
X102660000Y-85249000D01*
X105620000Y-85249000D02*
X105620000Y-86709000D01*
X105620000Y-86709000D02*
X102660000Y-86709000D01*
X14600000Y-8880000D02*
X21600000Y-8880000D01*
X14600000Y-12380000D02*
X14600000Y-8880000D01*
X21600000Y-8880000D02*
X21600000Y-12380000D01*
X21600000Y-12380000D02*
X14600000Y-12380000D01*
X22280000Y-18980000D02*
X25580000Y-18980000D01*
X22280000Y-20440000D02*
X22280000Y-18980000D01*
X25580000Y-18980000D02*
X25580000Y-20440000D01*
X25580000Y-20440000D02*
X22280000Y-20440000D01*
X51830000Y-76180000D02*
X53290000Y-76180000D01*
X51830000Y-79140000D02*
X51830000Y-76180000D01*
X53290000Y-76180000D02*
X53290000Y-79140000D01*
X53290000Y-79140000D02*
X51830000Y-79140000D01*
X62860000Y-26377500D02*
X64320000Y-26377500D01*
X62860000Y-29337500D02*
X62860000Y-26377500D01*
X64320000Y-26377500D02*
X64320000Y-29337500D01*
X64320000Y-29337500D02*
X62860000Y-29337500D01*
X85160000Y-11800000D02*
X88120000Y-11800000D01*
X85160000Y-13260000D02*
X85160000Y-11800000D01*
X88120000Y-11800000D02*
X88120000Y-13260000D01*
X88120000Y-13260000D02*
X85160000Y-13260000D01*
X133980000Y-53220000D02*
X138780000Y-53220000D01*
X133980000Y-58420000D02*
X133980000Y-53220000D01*
X138780000Y-53220000D02*
X138780000Y-58420000D01*
X138780000Y-58420000D02*
X133980000Y-58420000D01*
X114090000Y-83090000D02*
X117050000Y-83090000D01*
X114090000Y-84550000D02*
X114090000Y-83090000D01*
X117050000Y-83090000D02*
X117050000Y-84550000D01*
X117050000Y-84550000D02*
X114090000Y-84550000D01*
X41897500Y-6010000D02*
X41897500Y-9410000D01*
X41897500Y-9410000D02*
X45737500Y-9410000D01*
X45737500Y-6010000D02*
X41897500Y-6010000D01*
X45737500Y-9410000D02*
X45737500Y-6010000D01*
X116052500Y-16457500D02*
X117512500Y-16457500D01*
X116052500Y-19417500D02*
X116052500Y-16457500D01*
X117512500Y-16457500D02*
X117512500Y-19417500D01*
X117512500Y-19417500D02*
X116052500Y-19417500D01*
X117527500Y-76249000D02*
X117527500Y-84509000D01*
X117527500Y-84509000D02*
X125787500Y-84509000D01*
X125787500Y-76249000D02*
X117527500Y-76249000D01*
X125787500Y-84509000D02*
X125787500Y-76249000D01*
X15320000Y-86160000D02*
X15320000Y-93560000D01*
X15320000Y-93560000D02*
X20720000Y-93560000D01*
X20720000Y-86160000D02*
X15320000Y-86160000D01*
X20720000Y-93560000D02*
X20720000Y-86160000D01*
X4180000Y-82750000D02*
X7140000Y-82750000D01*
X4180000Y-84210000D02*
X4180000Y-82750000D01*
X7140000Y-82750000D02*
X7140000Y-84210000D01*
X7140000Y-84210000D02*
X4180000Y-84210000D01*
X66610000Y-9157500D02*
X68070000Y-9157500D01*
X66610000Y-12117500D02*
X66610000Y-9157500D01*
X68070000Y-9157500D02*
X68070000Y-12117500D01*
X68070000Y-12117500D02*
X66610000Y-12117500D01*
X113963000Y-77883000D02*
X116923000Y-77883000D01*
X113963000Y-79343000D02*
X113963000Y-77883000D01*
X116923000Y-77883000D02*
X116923000Y-79343000D01*
X116923000Y-79343000D02*
X113963000Y-79343000D01*
X143630000Y-63760000D02*
X145930000Y-63760000D01*
X143630000Y-68360000D02*
X143630000Y-63760000D01*
X145930000Y-63760000D02*
X145930000Y-68360000D01*
X145930000Y-68360000D02*
X143630000Y-68360000D01*
X156030000Y-68460000D02*
X156030000Y-71860000D01*
X156030000Y-71860000D02*
X160130000Y-71860000D01*
X160130000Y-68460000D02*
X156030000Y-68460000D01*
X160130000Y-71860000D02*
X160130000Y-68460000D01*
X63200000Y-72800000D02*
X64670000Y-72800000D01*
X63200000Y-79200000D02*
X63200000Y-72800000D01*
X63200000Y-79200000D02*
X63200000Y-85600000D01*
X63200000Y-85600000D02*
X64670000Y-85600000D01*
X64670000Y-71950000D02*
X65520000Y-71950000D01*
X64670000Y-72800000D02*
X64670000Y-71950000D01*
X64670000Y-85600000D02*
X64670000Y-86450000D01*
X64670000Y-86450000D02*
X65520000Y-86450000D01*
X65520000Y-70480000D02*
X71920000Y-70480000D01*
X65520000Y-71950000D02*
X65520000Y-70480000D01*
X65520000Y-86450000D02*
X65520000Y-87920000D01*
X65520000Y-87920000D02*
X71920000Y-87920000D01*
X78320000Y-70480000D02*
X71920000Y-70480000D01*
X78320000Y-71950000D02*
X78320000Y-70480000D01*
X78320000Y-86450000D02*
X78320000Y-87920000D01*
X78320000Y-87920000D02*
X71920000Y-87920000D01*
X79170000Y-71950000D02*
X78320000Y-71950000D01*
X79170000Y-72800000D02*
X79170000Y-71950000D01*
X79170000Y-85600000D02*
X79170000Y-86450000D01*
X79170000Y-86450000D02*
X78320000Y-86450000D01*
X80640000Y-72800000D02*
X79170000Y-72800000D01*
X80640000Y-79200000D02*
X80640000Y-72800000D01*
X80640000Y-79200000D02*
X80640000Y-85600000D01*
X80640000Y-85600000D02*
X79170000Y-85600000D01*
X57970000Y-65197500D02*
X61970000Y-65197500D01*
X57970000Y-73797500D02*
X57970000Y-65197500D01*
X61970000Y-65197500D02*
X61970000Y-73797500D01*
X61970000Y-73797500D02*
X57970000Y-73797500D01*
X25810000Y-28720000D02*
X27710000Y-28720000D01*
X25810000Y-32420000D02*
X25810000Y-28720000D01*
X27710000Y-28720000D02*
X27710000Y-32420000D01*
X27710000Y-32420000D02*
X25810000Y-32420000D01*
X66030000Y-51850000D02*
X67490000Y-51850000D01*
X66030000Y-54810000D02*
X66030000Y-51850000D01*
X67490000Y-51850000D02*
X67490000Y-54810000D01*
X67490000Y-54810000D02*
X66030000Y-54810000D01*
X45645000Y-24810000D02*
X48605000Y-24810000D01*
X45645000Y-26270000D02*
X45645000Y-24810000D01*
X48605000Y-24810000D02*
X48605000Y-26270000D01*
X48605000Y-26270000D02*
X45645000Y-26270000D01*
X32335000Y-51555000D02*
X33795000Y-51555000D01*
X32335000Y-54515000D02*
X32335000Y-51555000D01*
X33795000Y-51555000D02*
X33795000Y-54515000D01*
X33795000Y-54515000D02*
X32335000Y-54515000D01*
X16270000Y-19870000D02*
X19570000Y-19870000D01*
X16270000Y-21330000D02*
X16270000Y-19870000D01*
X19570000Y-19870000D02*
X19570000Y-21330000D01*
X19570000Y-21330000D02*
X16270000Y-21330000D01*
X46350000Y-6330000D02*
X47810000Y-6330000D01*
X46350000Y-9290000D02*
X46350000Y-6330000D01*
X47810000Y-6330000D02*
X47810000Y-9290000D01*
X47810000Y-9290000D02*
X46350000Y-9290000D01*
X28350000Y-23780000D02*
X29810000Y-23780000D01*
X28350000Y-26740000D02*
X28350000Y-23780000D01*
X29810000Y-23780000D02*
X29810000Y-26740000D01*
X29810000Y-26740000D02*
X28350000Y-26740000D01*
M02*
